<svg id="svg" version="1.1" xmlns="http://www.w3.org/2000/svg" xmlns:xlink="http://www.w3.org/1999/xlink" width="400" height="121.73913043478261" viewBox="0, 0, 400,121.73913043478261"><g id="svgg"><path id="path0" d="M95.333 23.583 C 95.644 23.813,95.940 24.000,95.991 23.999 C 96.148 23.998,95.093 23.179,94.926 23.173 C 94.839 23.169,95.023 23.354,95.333 23.583 M24.908 23.747 C 24.000 24.208,23.753 24.265,23.933 23.974 C 24.005 23.858,23.978 23.827,23.866 23.896 C 23.765 23.959,23.719 24.110,23.766 24.231 C 23.812 24.353,23.678 24.744,23.467 25.101 C 23.008 25.877,22.755 40.920,23.191 41.446 C 23.354 41.642,23.347 41.726,23.156 41.862 C 22.966 41.996,22.980 42.011,23.222 41.932 C 23.390 41.878,39.900 41.833,59.912 41.833 C 94.319 41.833,96.315 41.817,96.647 41.542 C 97.025 41.227,97.308 25.726,96.932 25.959 C 96.849 26.010,96.823 25.890,96.875 25.692 C 96.927 25.495,96.907 25.371,96.831 25.418 C 96.687 25.507,96.000 24.648,96.000 24.380 C 96.000 24.296,95.681 24.045,95.292 23.822 L 94.583 23.417 60.158 23.373 L 25.732 23.329 24.908 23.747 M330.667 48.778 C 329.745 48.923,329.491 49.017,329.590 49.178 C 329.657 49.286,329.530 49.305,329.239 49.232 C 328.897 49.146,328.816 49.170,328.913 49.327 C 329.008 49.482,328.945 49.505,328.667 49.417 C 328.431 49.342,328.330 49.360,328.395 49.465 C 328.480 49.603,328.225 49.805,327.833 49.910 C 327.787 49.922,327.487 50.097,327.167 50.299 C 326.846 50.501,326.541 50.666,326.490 50.666 C 326.438 50.666,326.026 51.117,325.573 51.667 C 325.120 52.217,324.662 52.634,324.554 52.593 C 324.446 52.553,324.258 52.647,324.137 52.802 C 323.935 53.060,323.943 53.063,324.237 52.833 C 324.532 52.603,324.550 52.610,324.456 52.917 C 324.157 53.898,323.422 55.477,323.332 55.332 C 323.275 55.239,323.252 55.633,323.281 56.207 C 323.310 56.781,323.278 57.121,323.209 56.964 C 323.140 56.807,323.083 62.551,323.083 69.729 L 323.083 82.780 325.790 82.812 L 328.497 82.843 328.540 73.313 L 328.583 63.784 331.500 63.818 C 333.104 63.836,334.604 63.885,334.833 63.927 C 335.063 63.968,335.156 63.958,335.042 63.904 C 334.890 63.832,334.833 63.194,334.833 61.563 L 334.833 59.320 331.708 59.340 L 328.583 59.359 328.583 57.590 C 328.583 56.294,328.643 55.784,328.806 55.684 C 328.928 55.608,329.003 55.498,328.973 55.440 C 328.843 55.195,329.909 54.326,330.552 54.152 C 331.355 53.936,332.687 54.053,333.711 54.429 C 334.099 54.572,334.540 54.728,334.691 54.776 C 334.913 54.847,335.021 54.624,335.263 53.598 C 335.427 52.902,335.631 52.333,335.717 52.333 C 335.802 52.333,335.836 52.195,335.792 52.025 C 335.747 51.856,335.811 51.537,335.933 51.317 C 336.286 50.680,336.211 50.490,335.493 50.209 C 335.100 50.054,334.852 49.859,334.897 49.741 C 334.949 49.606,334.859 49.568,334.628 49.628 C 334.392 49.690,334.319 49.657,334.400 49.526 C 334.466 49.420,334.446 49.333,334.357 49.333 C 334.267 49.333,334.057 49.289,333.889 49.234 C 333.635 49.152,333.625 49.165,333.833 49.315 C 333.984 49.424,334.006 49.496,333.887 49.497 C 333.779 49.499,333.574 49.384,333.432 49.242 C 333.223 49.032,331.481 48.608,331.167 48.690 C 331.121 48.702,330.896 48.742,330.667 48.778 M23.074 49.096 C 22.896 49.240,22.863 49.296,23.000 49.221 C 23.137 49.145,27.262 49.045,32.167 48.997 L 41.083 48.911 32.240 48.872 C 24.405 48.838,23.360 48.863,23.074 49.096 M48.979 49.125 C 48.776 49.383,48.780 49.393,49.016 49.209 C 49.226 49.046,54.354 48.992,72.933 48.958 L 96.583 48.916 72.895 48.874 C 50.506 48.836,49.195 48.849,48.979 49.125 M331.333 49.000 C 331.333 49.092,330.977 49.155,330.542 49.142 L 329.750 49.117 330.500 49.000 C 330.912 48.936,331.269 48.872,331.292 48.858 C 331.315 48.845,331.333 48.908,331.333 49.000 M96.708 49.099 C 96.764 49.189,87.212 49.232,73.124 49.207 C 51.231 49.167,49.424 49.184,49.140 49.441 C 48.747 49.797,48.650 95.903,49.042 96.324 C 49.208 96.504,49.208 96.525,49.042 96.431 C 48.773 96.280,48.766 96.700,49.033 96.967 C 49.187 97.120,54.459 97.167,71.751 97.167 L 94.268 97.167 95.092 96.755 C 95.634 96.485,96.057 96.116,96.327 95.678 C 96.605 95.227,96.780 95.077,96.869 95.214 C 96.941 95.326,96.956 95.154,96.902 94.833 C 96.848 94.505,96.866 94.334,96.944 94.442 C 97.021 94.548,97.071 87.423,97.057 78.609 C 97.011 51.101,96.994 49.183,96.797 49.061 C 96.697 48.999,96.657 49.016,96.708 49.099 M332.542 49.118 C 332.335 49.157,331.998 49.157,331.792 49.118 C 331.585 49.078,331.754 49.045,332.167 49.045 C 332.579 49.045,332.748 49.078,332.542 49.118 M23.173 49.489 C 23.056 49.707,23.001 57.052,23.004 72.114 C 23.008 96.182,22.980 95.390,23.819 95.908 C 23.921 95.971,23.959 96.098,23.903 96.189 C 23.841 96.288,23.661 96.234,23.453 96.053 L 23.106 95.750 23.428 96.192 C 23.605 96.436,23.900 96.728,24.083 96.841 C 24.412 97.045,24.413 97.043,24.099 96.690 C 23.685 96.224,23.898 96.240,24.903 96.751 L 25.723 97.167 33.320 97.161 C 39.032 97.157,40.981 97.106,41.175 96.953 C 41.580 96.634,41.625 49.914,41.219 49.466 C 40.782 48.983,23.432 49.004,23.173 49.489 M265.590 49.302 C 265.690 49.374,265.753 54.481,265.759 62.917 C 265.769 76.828,265.788 77.953,266.026 78.100 C 266.104 78.147,266.167 78.357,266.167 78.567 C 266.167 79.073,267.152 81.028,267.347 80.908 C 267.431 80.856,267.500 80.927,267.500 81.065 C 267.500 81.334,268.488 82.167,268.807 82.167 C 269.066 82.167,269.054 82.454,268.792 82.542 C 268.677 82.580,268.846 82.620,269.167 82.631 C 269.487 82.642,270.324 82.700,271.025 82.760 C 272.443 82.880,273.689 82.678,274.787 82.148 C 275.174 81.961,275.566 81.854,275.657 81.911 C 275.940 82.086,276.669 81.492,276.644 81.106 C 276.622 80.763,276.619 80.764,276.549 81.125 C 276.434 81.720,276.170 81.560,276.136 80.875 C 276.119 80.531,276.097 80.084,276.087 79.881 C 276.076 79.678,276.015 79.460,275.951 79.395 C 275.776 79.221,275.808 78.132,275.984 78.240 C 276.145 78.340,276.064 77.806,275.835 77.250 C 275.759 77.067,275.655 76.785,275.604 76.625 C 275.552 76.465,275.414 76.339,275.297 76.346 C 275.130 76.357,275.128 76.378,275.292 76.444 C 275.406 76.490,275.500 76.601,275.500 76.690 C 275.500 76.780,275.425 76.807,275.333 76.750 C 275.242 76.693,275.167 76.730,275.167 76.832 C 275.167 76.934,274.885 77.137,274.542 77.283 C 273.871 77.569,272.333 77.700,272.333 77.472 C 272.333 77.396,272.202 77.334,272.042 77.336 C 271.792 77.338,271.786 77.362,272.000 77.500 C 272.137 77.589,272.175 77.660,272.083 77.659 C 271.830 77.655,271.414 77.289,271.240 76.917 C 271.149 76.722,271.049 70.885,271.000 62.917 L 270.917 49.250 268.173 49.218 C 266.664 49.201,265.502 49.239,265.590 49.302 M297.083 49.333 C 296.900 49.412,296.821 49.482,296.907 49.488 C 296.993 49.495,296.918 49.606,296.741 49.736 C 296.535 49.886,296.350 49.916,296.231 49.817 C 296.109 49.717,295.964 49.765,295.814 49.956 C 295.605 50.223,295.610 50.229,295.875 50.021 C 296.286 49.699,296.237 49.929,295.763 50.553 C 295.541 50.845,295.306 51.308,295.240 51.583 C 295.174 51.858,295.066 52.158,295.000 52.250 C 294.934 52.342,294.839 52.717,294.788 53.083 C 294.738 53.450,294.734 53.656,294.779 53.542 C 294.918 53.188,295.120 53.311,295.220 53.810 C 295.525 55.332,297.707 56.329,299.348 55.696 C 299.808 55.518,300.833 54.573,300.833 54.326 C 300.833 54.244,300.958 54.225,301.111 54.284 C 301.287 54.351,301.347 54.324,301.276 54.209 C 301.215 54.110,301.259 53.997,301.374 53.958 C 301.540 53.902,301.539 53.834,301.367 53.625 C 301.236 53.467,301.214 53.324,301.311 53.264 C 301.399 53.209,301.510 53.259,301.556 53.374 C 301.602 53.489,301.646 53.260,301.654 52.865 C 301.661 52.433,301.601 52.187,301.503 52.248 C 301.400 52.312,301.378 52.149,301.445 51.816 C 301.520 51.442,301.496 51.316,301.365 51.397 C 301.257 51.464,301.023 51.277,300.810 50.952 C 300.608 50.644,300.146 50.220,299.782 50.011 C 299.343 49.758,299.190 49.589,299.325 49.505 C 299.806 49.208,297.743 49.050,297.083 49.333 M271.413 63.000 C 271.413 70.012,271.433 72.881,271.458 69.375 C 271.483 65.869,271.483 60.131,271.458 56.625 C 271.433 53.119,271.413 55.987,271.413 63.000 M297.794 56.285 C 298.001 56.324,298.301 56.323,298.460 56.281 C 298.620 56.239,298.450 56.207,298.083 56.209 C 297.717 56.211,297.586 56.245,297.794 56.285 M164.106 58.279 C 164.210 58.355,164.336 58.567,164.386 58.750 C 164.459 59.013,164.472 58.998,164.447 58.680 C 164.431 58.458,164.304 58.246,164.167 58.209 C 164.001 58.164,163.981 58.188,164.106 58.279 M220.477 58.208 C 220.465 58.231,220.435 65.675,220.411 74.750 L 220.368 91.250 223.142 91.201 L 225.917 91.152 225.871 85.326 C 225.846 82.122,225.849 79.500,225.879 79.500 C 226.038 79.500,227.917 81.392,227.920 81.556 C 227.922 81.663,228.061 81.726,228.229 81.697 C 228.396 81.668,228.491 81.714,228.438 81.798 C 228.386 81.883,228.520 81.918,228.737 81.877 C 228.953 81.835,229.326 81.930,229.565 82.087 C 229.804 82.243,230.000 82.316,230.000 82.249 C 230.000 82.181,230.112 82.219,230.250 82.333 C 230.387 82.447,230.500 82.504,230.500 82.459 C 230.500 82.414,230.931 82.479,231.458 82.603 C 233.212 83.015,237.388 82.744,238.076 82.172 C 238.189 82.079,238.330 82.052,238.390 82.113 C 238.451 82.173,238.500 82.138,238.500 82.036 C 238.500 81.925,238.705 81.875,239.000 81.912 C 239.275 81.947,239.500 81.902,239.500 81.811 C 239.500 81.721,239.575 81.693,239.667 81.750 C 239.758 81.807,239.833 81.745,239.833 81.612 C 239.833 81.480,240.010 81.256,240.227 81.114 C 240.727 80.786,242.217 79.500,242.096 79.500 C 242.046 79.500,242.285 79.243,242.627 78.930 C 243.304 78.309,243.579 78.273,243.068 78.871 C 242.791 79.196,242.789 79.214,243.051 79.011 C 243.426 78.720,243.809 78.059,243.488 78.257 C 243.344 78.346,243.309 78.313,243.377 78.152 C 243.432 78.023,243.744 77.317,244.070 76.583 C 244.396 75.850,244.664 75.119,244.665 74.958 C 244.666 74.798,244.750 74.667,244.851 74.667 C 244.953 74.667,244.996 74.563,244.948 74.437 C 244.899 74.311,244.947 74.119,245.055 74.012 C 245.189 73.877,245.250 72.900,245.250 70.867 L 245.250 67.917 244.613 66.205 C 244.263 65.263,243.795 64.176,243.574 63.788 C 243.143 63.035,243.064 62.750,243.333 62.917 C 243.605 63.084,243.523 62.893,243.218 62.645 C 243.026 62.490,242.976 62.483,243.061 62.625 C 243.372 63.143,242.844 62.746,242.115 61.915 C 241.673 61.412,241.234 61.000,241.138 61.000 C 240.931 61.000,240.174 60.308,240.170 60.115 C 240.168 60.041,240.242 60.027,240.333 60.083 C 240.425 60.140,240.500 60.147,240.500 60.099 C 240.500 60.051,240.341 59.927,240.147 59.823 C 239.903 59.692,239.828 59.690,239.905 59.815 C 239.975 59.928,239.920 59.959,239.760 59.897 C 239.618 59.843,239.551 59.720,239.610 59.623 C 239.673 59.522,239.638 59.498,239.528 59.566 C 239.423 59.631,238.830 59.501,238.210 59.279 C 235.629 58.351,232.265 58.345,229.530 59.263 C 228.859 59.488,228.240 59.629,228.155 59.576 C 228.070 59.523,227.999 59.616,227.997 59.782 C 227.995 60.037,227.970 60.045,227.833 59.833 C 227.744 59.696,227.661 59.640,227.648 59.708 C 227.636 59.777,227.615 59.890,227.603 59.958 C 227.556 60.227,227.065 60.790,226.720 60.973 C 226.520 61.079,226.308 61.316,226.250 61.500 C 226.009 62.261,225.833 61.735,225.833 60.250 L 225.833 58.667 223.149 58.667 C 220.831 58.667,220.477 58.633,220.560 58.417 C 220.637 58.217,220.567 58.042,220.477 58.208 M352.700 58.367 C 352.469 58.598,352.427 59.065,352.649 58.927 C 352.736 58.874,352.843 61.901,352.905 66.126 C 353.024 74.275,353.038 74.802,353.130 74.527 C 353.165 74.421,353.268 74.333,353.357 74.333 C 353.446 74.333,353.480 74.398,353.431 74.477 C 353.331 74.638,353.964 76.020,354.598 77.023 C 354.826 77.384,354.966 77.753,354.910 77.844 C 354.854 77.934,354.908 77.988,355.029 77.962 C 355.151 77.937,355.229 78.016,355.204 78.137 C 355.179 78.259,355.217 78.322,355.289 78.277 C 355.361 78.233,355.719 78.412,356.085 78.676 C 356.959 79.307,358.590 80.167,358.912 80.167 C 359.052 80.167,359.167 80.233,359.167 80.315 C 359.167 80.396,359.298 80.453,359.458 80.440 C 359.619 80.427,359.738 80.492,359.722 80.583 C 359.705 80.687,360.615 80.765,362.111 80.790 C 363.439 80.812,364.607 80.880,364.706 80.941 C 364.805 81.002,364.837 80.974,364.777 80.878 C 364.716 80.778,364.882 80.664,365.169 80.609 C 365.759 80.497,365.921 80.448,366.583 80.188 C 366.858 80.080,367.308 79.907,367.583 79.804 C 367.858 79.701,368.508 79.290,369.028 78.892 C 370.235 77.965,370.226 77.961,370.095 79.292 C 370.035 79.910,369.970 80.679,369.951 81.000 C 369.932 81.321,369.823 81.643,369.708 81.717 C 369.594 81.790,369.500 81.926,369.500 82.018 C 369.500 82.111,369.575 82.140,369.667 82.083 C 369.914 81.931,369.869 82.373,369.564 83.105 C 369.170 84.051,368.663 84.701,368.400 84.600 C 368.274 84.552,368.179 84.566,368.188 84.631 C 368.238 84.963,368.148 85.175,367.997 85.082 C 367.904 85.024,367.879 84.888,367.941 84.780 C 368.006 84.667,367.989 84.642,367.902 84.722 C 367.818 84.799,367.741 84.930,367.729 85.014 C 367.718 85.098,367.699 85.228,367.688 85.302 C 367.659 85.489,366.705 85.929,365.999 86.081 C 365.679 86.150,365.342 86.251,365.250 86.305 C 364.735 86.613,360.167 86.032,360.167 85.659 C 360.167 85.577,360.054 85.554,359.917 85.606 C 359.779 85.659,359.667 85.619,359.667 85.518 C 359.667 85.416,359.550 85.333,359.407 85.333 C 359.264 85.333,359.193 85.259,359.249 85.169 C 359.309 85.071,359.235 85.048,359.065 85.114 C 358.855 85.194,358.815 85.164,358.915 85.003 C 359.001 84.864,358.987 84.822,358.877 84.890 C 358.621 85.048,357.212 84.390,356.215 83.647 C 355.738 83.291,355.272 83.000,355.179 83.000 C 355.086 83.000,355.053 82.869,355.104 82.708 C 355.179 82.477,355.163 82.466,355.031 82.652 C 354.939 82.781,354.896 82.970,354.935 83.072 C 355.011 83.269,353.839 86.129,353.421 86.767 C 353.185 87.128,353.210 87.170,354.004 87.753 C 354.460 88.088,354.833 88.463,354.833 88.588 C 354.833 88.712,354.920 88.867,355.026 88.933 C 355.140 89.003,355.173 88.979,355.108 88.873 C 355.047 88.774,355.791 89.056,356.761 89.498 C 358.425 90.256,359.028 90.498,359.417 90.568 C 359.508 90.585,359.559 90.708,359.530 90.841 C 359.489 91.027,359.522 91.038,359.676 90.887 C 359.801 90.764,360.009 90.742,360.232 90.826 C 361.273 91.222,365.317 91.334,366.667 91.004 C 369.341 90.350,370.833 89.490,372.699 87.529 C 373.309 86.888,373.773 86.329,373.730 86.286 C 373.687 86.243,373.764 86.165,373.901 86.112 C 374.078 86.045,374.124 86.099,374.059 86.300 C 373.984 86.534,373.999 86.541,374.140 86.341 C 374.234 86.208,374.274 86.039,374.228 85.965 C 374.182 85.891,374.335 85.356,374.567 84.776 C 375.449 82.572,375.500 81.743,375.500 69.728 C 375.500 60.296,375.465 58.667,375.264 58.667 C 375.134 58.667,374.990 58.760,374.944 58.875 C 374.876 59.042,374.857 59.042,374.846 58.875 C 374.837 58.719,374.250 58.667,372.507 58.667 L 370.180 58.667 370.115 63.708 C 370.057 68.231,369.984 69.178,369.583 70.667 C 369.496 70.989,369.511 71.027,369.650 70.833 C 369.928 70.443,369.888 70.948,369.564 71.899 C 369.223 72.899,367.587 74.728,367.137 74.611 C 366.948 74.561,366.875 74.599,366.944 74.711 C 367.013 74.823,366.954 74.851,366.786 74.787 C 366.590 74.712,366.544 74.755,366.617 74.945 C 366.701 75.164,366.661 75.175,366.362 75.016 C 366.070 74.859,366.024 74.869,366.101 75.069 C 366.419 75.899,361.903 75.797,360.631 74.946 C 359.641 74.284,358.901 73.331,359.059 72.921 C 359.118 72.767,359.068 72.715,358.918 72.772 C 358.373 72.982,358.257 71.632,358.253 65.042 L 358.250 58.667 355.438 58.667 C 352.957 58.667,352.650 58.637,352.833 58.417 C 353.081 58.119,352.984 58.082,352.700 58.367 M125.374 58.673 C 124.096 58.833,122.528 59.236,121.833 59.583 C 121.094 59.952,120.609 60.061,120.755 59.825 C 120.838 59.692,120.817 59.657,120.700 59.730 C 120.598 59.793,120.555 59.949,120.604 60.078 C 120.702 60.331,119.561 61.005,119.233 60.888 C 119.133 60.852,118.945 60.956,118.817 61.119 C 118.604 61.391,118.609 61.397,118.879 61.185 C 119.564 60.647,119.331 61.239,118.573 61.963 C 117.813 62.688,116.333 64.790,116.333 65.144 C 116.333 65.568,115.880 66.147,115.694 65.960 C 115.551 65.817,115.500 65.816,115.500 65.957 C 115.500 66.061,115.575 66.193,115.667 66.250 C 115.758 66.307,115.832 66.442,115.831 66.552 C 115.829 66.673,115.768 66.655,115.674 66.506 C 115.473 66.189,115.109 67.071,115.214 67.620 C 115.253 67.823,115.240 67.962,115.184 67.928 C 115.129 67.893,115.068 68.664,115.050 69.641 C 115.031 70.618,114.978 71.679,114.932 72.000 C 114.851 72.565,114.853 72.568,114.998 72.083 C 115.124 71.664,115.140 71.726,115.101 72.465 C 115.076 72.951,115.110 73.382,115.178 73.424 C 115.246 73.466,115.260 73.662,115.208 73.860 C 115.140 74.121,115.171 74.183,115.325 74.089 C 115.476 73.995,115.508 74.047,115.437 74.271 C 115.383 74.443,115.413 74.808,115.503 75.083 L 115.667 75.583 115.586 75.033 C 115.536 74.696,115.568 74.523,115.669 74.585 C 115.759 74.641,115.833 74.777,115.833 74.887 C 115.833 74.998,115.979 75.360,116.157 75.693 C 116.335 76.025,116.435 76.342,116.379 76.398 C 116.324 76.454,116.365 76.500,116.472 76.500 C 116.579 76.500,116.667 76.574,116.667 76.663 C 116.667 77.390,118.998 79.942,120.562 80.929 C 121.085 81.258,121.305 81.498,121.241 81.667 C 121.170 81.855,121.195 81.869,121.339 81.726 C 121.483 81.583,121.642 81.594,121.974 81.767 C 122.217 81.894,122.570 81.998,122.758 81.999 C 122.946 82.000,123.171 82.071,123.258 82.157 C 123.345 82.244,123.642 82.355,123.917 82.403 C 124.192 82.452,124.821 82.568,125.314 82.662 C 127.180 83.018,130.777 82.783,131.854 82.235 C 132.094 82.113,132.338 82.060,132.396 82.118 C 132.453 82.175,132.500 82.142,132.500 82.044 C 132.500 81.947,132.725 81.882,133.000 81.901 C 133.275 81.920,133.500 81.875,133.500 81.801 C 133.500 81.727,133.556 81.685,133.625 81.708 C 133.694 81.731,133.765 81.688,133.783 81.613 C 133.801 81.538,134.139 81.243,134.533 80.957 C 135.472 80.277,136.015 79.794,137.200 78.583 L 138.179 77.583 137.714 77.185 C 137.459 76.967,136.888 76.460,136.445 76.060 C 136.003 75.661,135.580 75.333,135.506 75.333 C 135.432 75.333,135.241 75.134,135.082 74.891 C 134.816 74.485,134.815 74.457,135.071 74.556 C 135.236 74.619,135.309 74.595,135.249 74.498 C 135.115 74.282,134.648 74.292,134.333 74.518 C 134.123 74.669,134.130 74.683,134.379 74.603 C 134.980 74.409,134.287 75.226,132.347 77.000 C 131.942 77.369,130.576 77.822,130.179 77.718 C 129.989 77.668,129.833 77.701,129.833 77.791 C 129.833 77.880,129.635 77.916,129.392 77.869 C 129.110 77.815,128.989 77.848,129.058 77.959 C 129.125 78.067,128.883 78.156,128.416 78.193 C 128.004 78.226,127.667 78.214,127.667 78.167 C 127.667 78.120,127.310 78.104,126.875 78.133 C 126.255 78.174,126.138 78.144,126.333 77.995 C 126.530 77.846,126.461 77.826,126.012 77.904 C 125.698 77.959,125.491 77.953,125.553 77.892 C 125.614 77.830,125.507 77.669,125.314 77.534 C 125.033 77.338,124.938 77.331,124.831 77.503 C 124.530 77.991,122.214 76.149,121.564 74.905 C 121.360 74.513,122.699 73.849,123.260 74.064 C 123.425 74.128,123.476 74.095,123.400 73.974 C 123.319 73.842,123.429 73.815,123.767 73.886 C 124.033 73.941,124.156 73.946,124.041 73.896 C 123.925 73.846,123.874 73.736,123.926 73.652 C 123.982 73.561,124.150 73.568,124.340 73.670 C 124.589 73.803,124.640 73.791,124.571 73.612 C 124.507 73.444,124.918 73.262,126.117 72.925 C 127.015 72.673,128.079 72.324,128.481 72.149 C 129.716 71.613,131.036 71.322,131.287 71.531 C 131.458 71.673,131.484 71.653,131.403 71.440 C 131.334 71.260,131.385 71.167,131.552 71.167 C 131.692 71.167,131.943 71.123,132.111 71.070 C 132.391 70.981,132.389 70.995,132.093 71.236 C 131.677 71.576,131.840 71.571,132.571 71.223 C 132.891 71.070,133.109 70.874,133.055 70.788 C 132.999 70.696,133.106 70.678,133.312 70.743 C 133.536 70.814,133.667 70.784,133.667 70.660 C 133.667 70.552,133.779 70.508,133.917 70.560 C 134.054 70.613,134.167 70.575,134.167 70.475 C 134.167 70.376,134.317 70.334,134.500 70.382 C 134.684 70.430,134.795 70.406,134.748 70.329 C 134.700 70.253,134.732 70.146,134.819 70.092 C 134.906 70.038,135.024 70.071,135.082 70.164 C 135.139 70.257,135.276 70.332,135.385 70.331 C 135.518 70.329,135.509 70.281,135.357 70.185 C 135.077 70.007,135.142 69.970,136.583 69.487 C 137.814 69.075,137.888 69.054,138.191 69.021 C 138.463 68.991,138.250 66.962,137.836 65.641 C 137.425 64.331,137.425 64.300,137.833 64.917 C 138.015 65.192,138.165 65.362,138.166 65.296 C 138.167 65.103,137.502 64.065,137.496 64.250 C 137.492 64.342,137.413 64.285,137.319 64.124 C 137.225 63.963,137.202 63.745,137.267 63.640 C 137.337 63.527,137.311 63.494,137.205 63.560 C 137.106 63.621,136.857 63.426,136.651 63.127 C 136.177 62.439,134.220 60.500,133.999 60.500 C 133.908 60.500,133.833 60.353,133.833 60.173 C 133.833 59.992,133.665 59.763,133.458 59.663 C 133.098 59.489,133.096 59.492,133.407 59.741 C 133.777 60.037,133.635 60.084,133.151 59.825 C 132.971 59.729,132.856 59.597,132.896 59.533 C 132.936 59.469,132.807 59.408,132.609 59.398 C 132.412 59.388,131.660 59.220,130.940 59.025 C 129.397 58.608,127.070 58.461,125.374 58.673 M170.204 58.676 C 169.537 58.758,168.362 59.036,167.591 59.294 C 166.821 59.551,166.239 59.684,166.297 59.589 C 166.355 59.494,166.219 59.538,165.994 59.686 C 165.769 59.835,165.583 60.060,165.581 60.186 C 165.577 60.388,164.289 61.833,164.113 61.833 C 164.077 61.833,164.073 61.121,164.106 60.250 L 164.165 58.667 161.433 58.667 L 158.702 58.667 158.711 70.639 C 158.717 77.224,158.670 82.693,158.608 82.794 C 158.545 82.895,158.582 83.031,158.690 83.098 C 158.812 83.173,158.840 83.146,158.766 83.026 C 158.628 82.802,158.473 82.813,161.692 82.833 L 164.134 82.848 164.157 76.632 C 164.170 73.130,164.259 69.907,164.361 69.250 C 164.460 68.608,164.548 67.952,164.556 67.792 C 164.565 67.631,164.615 67.500,164.669 67.500 C 164.783 67.500,165.249 66.305,165.202 66.131 C 165.185 66.066,165.287 66.056,165.428 66.111 C 165.584 66.170,165.645 66.317,165.583 66.480 C 165.503 66.691,165.524 66.706,165.683 66.549 C 165.840 66.393,165.841 66.294,165.688 66.109 C 165.442 65.812,167.092 64.257,167.804 64.113 C 168.049 64.064,168.400 63.976,168.583 63.918 C 168.767 63.860,168.654 63.964,168.333 64.149 C 167.634 64.553,167.796 64.614,168.542 64.228 C 169.068 63.956,171.872 63.636,171.731 63.864 C 171.690 63.931,171.933 63.960,172.272 63.930 C 173.167 63.849,175.000 65.109,175.000 65.804 C 175.000 65.897,175.077 65.998,175.171 66.029 C 175.714 66.210,175.829 67.849,175.831 75.367 L 175.833 82.818 178.542 82.867 L 181.250 82.917 181.232 80.292 C 181.222 78.848,181.279 77.667,181.357 77.667 C 181.436 77.667,181.500 76.242,181.500 74.500 C 181.500 72.758,181.441 71.333,181.370 71.333 C 181.298 71.333,181.224 71.142,181.204 70.908 C 181.185 70.673,181.234 70.522,181.314 70.571 C 181.393 70.620,181.455 70.081,181.450 69.372 C 181.437 67.320,182.733 65.073,184.323 64.390 C 185.350 63.949,186.183 63.672,186.106 63.797 C 186.065 63.863,186.693 63.917,187.500 63.917 C 188.307 63.917,188.936 63.865,188.898 63.802 C 188.822 63.680,189.440 63.843,190.250 64.160 C 191.168 64.519,192.160 65.755,191.897 66.213 C 191.832 66.325,191.841 66.362,191.915 66.294 C 192.159 66.074,192.487 66.713,192.305 67.054 C 192.214 67.223,192.183 67.405,192.236 67.459 C 192.290 67.512,192.333 67.456,192.333 67.333 C 192.333 66.909,192.579 67.360,192.636 67.887 C 192.667 68.178,192.726 71.660,192.768 75.625 L 192.844 82.833 195.515 82.833 C 197.608 82.833,198.159 82.878,198.061 83.042 C 197.976 83.183,198.026 83.177,198.218 83.021 C 198.518 82.778,198.606 82.581,198.342 82.745 C 198.244 82.805,198.156 79.710,198.108 74.546 C 198.022 65.114,198.040 65.666,197.811 65.390 C 197.716 65.275,197.683 65.108,197.738 65.019 C 197.794 64.929,197.763 64.809,197.669 64.752 C 197.576 64.694,197.500 64.536,197.500 64.400 C 197.500 63.592,195.110 59.945,194.791 60.265 C 194.752 60.304,194.584 60.185,194.418 60.001 C 194.090 59.639,194.290 59.534,194.658 59.875 C 194.835 60.040,194.858 60.040,194.765 59.876 C 194.701 59.762,194.493 59.586,194.304 59.484 C 194.083 59.366,193.998 59.362,194.067 59.473 C 194.129 59.574,194.032 59.636,193.837 59.621 C 193.652 59.607,193.500 59.540,193.500 59.471 C 193.500 59.297,191.967 58.859,190.627 58.650 C 188.988 58.395,184.667 58.883,184.667 59.324 C 184.667 59.424,184.503 59.458,183.597 59.545 C 183.376 59.566,183.207 59.622,183.222 59.670 C 183.268 59.813,182.612 60.440,182.183 60.663 C 181.829 60.848,181.795 60.840,181.892 60.588 C 181.959 60.412,181.811 60.483,181.500 60.777 C 180.891 61.352,180.869 61.427,181.417 61.068 C 181.915 60.741,181.972 60.989,181.498 61.419 C 181.313 61.586,180.957 62.047,180.706 62.444 C 180.181 63.275,180.074 63.319,179.935 62.763 C 179.879 62.541,179.385 61.885,178.838 61.305 C 178.290 60.725,177.840 60.165,177.837 60.061 C 177.835 59.957,177.637 59.743,177.396 59.585 C 177.148 59.422,177.016 59.390,177.090 59.511 C 177.188 59.669,177.139 59.689,176.902 59.591 C 174.605 58.642,172.647 58.374,170.204 58.676 M298.208 58.625 L 295.500 58.675 295.500 70.754 C 295.500 77.398,295.556 82.824,295.625 82.814 C 296.499 82.676,300.831 82.869,300.728 83.042 C 300.636 83.195,300.674 83.192,300.873 83.031 C 301.164 82.795,301.258 80.333,300.975 80.333 C 300.897 80.333,300.848 79.602,300.865 78.708 L 300.896 77.083 301.000 78.583 C 301.057 79.414,301.102 77.852,301.100 75.083 C 301.097 71.258,301.074 70.690,301.000 72.667 C 300.918 74.850,300.898 74.484,300.868 70.302 C 300.846 67.144,300.894 65.316,301.000 65.250 C 301.092 65.193,301.167 64.772,301.167 64.314 C 301.167 63.801,301.103 63.520,301.000 63.583 C 300.908 63.640,300.833 63.574,300.833 63.436 C 300.833 63.299,300.908 63.140,301.000 63.083 C 301.097 63.024,301.166 62.126,301.164 60.948 C 301.162 59.575,301.109 58.998,301.000 59.167 C 300.862 59.380,300.838 59.374,300.836 59.125 C 300.834 58.965,300.908 58.833,301.000 58.833 C 301.092 58.833,301.167 58.758,301.167 58.667 C 301.167 58.575,301.110 58.517,301.042 58.537 C 300.973 58.558,299.698 58.597,298.208 58.625 M241.000 60.385 C 241.000 60.414,241.244 60.658,241.542 60.927 L 242.083 61.417 241.594 60.875 C 241.138 60.370,241.000 60.257,241.000 60.385 M135.667 61.417 C 135.978 61.737,136.270 62.000,136.315 62.000 C 136.361 62.000,136.144 61.737,135.833 61.417 C 135.522 61.096,135.230 60.833,135.185 60.833 C 135.139 60.833,135.356 61.096,135.667 61.417 M196.000 61.052 C 196.000 61.081,196.244 61.325,196.542 61.594 L 197.083 62.083 196.594 61.542 C 196.138 61.037,196.000 60.923,196.000 61.052 M180.453 61.999 C 180.325 62.182,180.159 62.275,180.083 62.207 C 180.008 62.139,180.001 62.177,180.066 62.292 C 180.228 62.573,180.254 62.563,180.568 62.083 C 180.891 61.590,180.791 61.517,180.453 61.999 M128.114 63.192 C 128.372 63.297,128.761 63.366,128.977 63.344 C 129.233 63.318,129.330 63.370,129.255 63.492 C 129.174 63.623,129.283 63.648,129.611 63.577 C 129.929 63.507,130.011 63.524,129.861 63.630 C 129.688 63.752,129.715 63.807,129.986 63.878 C 130.177 63.928,130.292 63.901,130.240 63.818 C 130.038 63.491,130.996 63.933,131.717 64.500 C 132.322 64.976,133.182 66.568,132.659 66.245 C 132.564 66.186,132.387 66.219,132.268 66.319 C 132.148 66.418,131.671 66.518,131.209 66.541 C 130.747 66.564,130.406 66.646,130.452 66.722 C 130.499 66.798,130.397 66.846,130.227 66.828 C 129.535 66.755,129.148 66.835,129.268 67.028 C 129.349 67.161,129.296 67.188,129.102 67.114 C 128.944 67.053,128.858 67.072,128.911 67.157 C 128.963 67.241,128.921 67.363,128.817 67.427 C 128.714 67.490,128.575 67.455,128.509 67.348 C 128.423 67.208,128.264 67.201,127.945 67.323 C 127.435 67.516,127.345 67.676,127.815 67.553 C 127.988 67.508,128.179 67.552,128.240 67.650 C 128.307 67.758,128.255 67.793,128.109 67.737 C 127.976 67.686,127.817 67.724,127.757 67.822 C 127.678 67.949,127.548 67.948,127.309 67.820 C 127.123 67.721,126.928 67.683,126.875 67.736 C 126.821 67.790,126.884 67.838,127.014 67.844 C 127.233 67.854,126.810 68.078,126.417 68.160 C 126.325 68.179,126.160 68.270,126.049 68.362 C 125.938 68.454,125.770 68.480,125.674 68.421 C 125.578 68.362,125.500 68.393,125.500 68.490 C 125.500 68.587,125.406 68.667,125.292 68.667 C 125.177 68.667,124.258 68.937,123.250 69.266 C 122.242 69.596,121.325 69.881,121.213 69.900 C 121.101 69.919,120.957 69.987,120.894 70.051 C 120.626 70.319,120.553 70.117,120.622 69.292 C 120.662 68.810,120.707 68.248,120.722 68.042 C 120.738 67.835,120.806 67.667,120.875 67.667 C 120.944 67.667,121.000 67.551,121.000 67.410 C 121.000 66.192,123.919 63.288,124.675 63.755 C 124.762 63.809,124.833 63.765,124.833 63.658 C 124.833 63.532,124.985 63.502,125.264 63.572 C 125.562 63.647,125.659 63.622,125.578 63.492 C 125.501 63.367,125.621 63.317,125.940 63.343 C 126.202 63.364,126.529 63.339,126.667 63.287 C 127.534 62.961,127.547 62.960,128.114 63.192 M127.294 63.451 C 127.501 63.491,127.801 63.490,127.960 63.448 C 128.120 63.406,127.950 63.374,127.583 63.375 C 127.217 63.377,127.086 63.411,127.294 63.451 M234.593 63.485 C 234.542 63.568,234.650 63.596,234.833 63.548 C 235.034 63.496,235.167 63.543,235.167 63.667 C 235.167 63.790,235.300 63.837,235.500 63.785 C 235.683 63.737,235.882 63.778,235.942 63.875 C 236.011 63.986,235.971 64.002,235.833 63.917 C 235.692 63.829,235.655 63.847,235.730 63.967 C 235.793 64.069,235.949 64.112,236.078 64.062 C 236.702 63.823,238.308 65.262,238.985 66.667 L 239.185 67.083 238.839 66.685 C 238.648 66.465,238.458 66.320,238.417 66.361 C 238.376 66.402,238.550 66.663,238.805 66.942 C 239.059 67.220,239.234 67.554,239.194 67.682 C 239.154 67.811,239.180 67.862,239.252 67.794 C 239.423 67.635,239.871 68.495,239.763 68.775 C 239.718 68.893,239.753 69.034,239.841 69.088 C 240.062 69.224,240.045 71.953,239.822 72.090 C 239.724 72.151,239.687 72.312,239.739 72.449 C 239.875 72.802,239.662 73.091,239.474 72.809 C 239.377 72.664,239.364 72.757,239.436 73.067 C 239.521 73.431,239.497 73.518,239.340 73.421 C 239.185 73.325,239.162 73.389,239.250 73.667 C 239.331 73.922,239.310 74.005,239.185 73.928 C 239.083 73.865,238.991 73.874,238.981 73.948 C 238.971 74.023,238.937 74.296,238.907 74.555 C 238.839 75.132,237.926 76.276,237.059 76.872 C 236.371 77.344,235.370 77.679,235.558 77.374 C 235.618 77.278,235.299 77.323,234.850 77.474 C 234.400 77.626,234.101 77.792,234.184 77.844 C 234.268 77.896,233.792 77.933,233.126 77.927 C 232.461 77.921,231.879 77.878,231.833 77.830 C 231.595 77.582,230.859 77.374,230.718 77.515 C 230.384 77.849,228.406 76.818,228.569 76.394 C 228.654 76.172,228.277 75.778,228.126 75.930 C 227.814 76.241,226.373 73.910,226.101 72.656 C 225.227 68.631,227.292 64.532,230.667 63.594 C 231.003 63.500,231.035 63.515,230.833 63.671 C 230.621 63.835,230.630 63.850,230.889 63.766 C 231.057 63.711,231.267 63.667,231.357 63.667 C 231.446 63.667,231.477 63.598,231.425 63.514 C 231.370 63.425,232.037 63.355,233.008 63.347 C 233.971 63.340,234.646 63.398,234.593 63.485 M123.917 64.140 C 123.642 64.308,123.304 64.586,123.167 64.758 C 122.958 65.017,123.807 64.477,124.408 63.968 C 124.681 63.736,124.437 63.822,123.917 64.140 M300.951 64.875 C 300.911 65.081,300.879 64.912,300.879 64.500 C 300.879 64.087,300.911 63.919,300.951 64.125 C 300.991 64.331,300.991 64.669,300.951 64.875 M130.750 64.333 C 130.916 64.517,131.127 64.667,131.218 64.667 C 131.309 64.667,131.211 64.517,131.000 64.333 C 130.789 64.150,130.578 64.000,130.532 64.000 C 130.486 64.000,130.584 64.150,130.750 64.333 M229.083 64.667 C 228.808 64.849,228.658 64.997,228.750 64.995 C 228.917 64.993,229.823 64.343,229.667 64.338 C 229.621 64.337,229.358 64.485,229.083 64.667 M190.667 64.885 C 190.667 64.914,190.910 65.158,191.208 65.427 L 191.750 65.917 191.260 65.375 C 190.804 64.870,190.667 64.757,190.667 64.885 M328.898 66.917 C 328.898 68.108,328.925 68.574,328.957 67.951 C 328.989 67.329,328.989 66.354,328.957 65.785 C 328.924 65.216,328.898 65.725,328.898 66.917 M183.417 65.437 C 183.117 65.692,183.056 65.794,183.264 65.691 C 183.569 65.539,184.142 64.990,183.979 65.006 C 183.945 65.009,183.692 65.203,183.417 65.437 M301.048 68.583 C 301.049 69.042,301.081 69.209,301.120 68.956 C 301.158 68.703,301.157 68.328,301.117 68.123 C 301.078 67.918,301.046 68.125,301.048 68.583 M164.408 76.500 C 164.408 79.662,164.431 80.956,164.458 79.375 C 164.485 77.794,164.485 75.206,164.458 73.625 C 164.431 72.044,164.408 73.337,164.408 76.500 M328.906 75.500 C 328.906 77.929,328.929 78.923,328.958 77.708 C 328.986 76.494,328.986 74.506,328.958 73.292 C 328.929 72.077,328.906 73.071,328.906 75.500 M369.193 71.591 C 368.944 72.139,368.949 72.227,369.217 71.977 C 369.401 71.805,369.572 71.167,369.433 71.167 C 369.408 71.167,369.300 71.358,369.193 71.591 M181.291 75.792 C 181.260 76.594,181.235 75.938,181.235 74.333 C 181.235 72.729,181.260 72.073,181.291 72.875 C 181.321 73.677,181.321 74.990,181.291 75.792 M238.240 75.042 L 237.750 75.583 238.292 75.094 C 238.590 74.825,238.833 74.581,238.833 74.552 C 238.833 74.423,238.696 74.537,238.240 75.042 M300.953 76.625 C 300.915 76.877,300.883 76.671,300.883 76.167 C 300.883 75.662,300.915 75.456,300.953 75.708 C 300.991 75.960,300.991 76.373,300.953 76.625 M115.864 76.084 C 115.969 76.314,116.076 76.479,116.104 76.452 C 116.205 76.350,115.956 75.667,115.817 75.667 C 115.738 75.667,115.759 75.854,115.864 76.084 M237.083 76.278 C 236.717 76.607,236.567 76.798,236.750 76.703 C 237.059 76.543,237.979 75.658,237.821 75.674 C 237.782 75.677,237.450 75.950,237.083 76.278 M137.500 76.552 C 137.500 76.581,137.744 76.825,138.042 77.094 L 138.583 77.583 138.094 77.042 C 137.638 76.537,137.500 76.423,137.500 76.552 M265.357 76.667 C 265.357 76.804,265.421 77.067,265.500 77.250 C 265.590 77.460,265.643 77.491,265.643 77.333 C 265.643 77.196,265.579 76.933,265.500 76.750 C 265.410 76.540,265.357 76.509,265.357 76.667 M192.379 81.167 C 192.379 81.579,192.411 81.748,192.451 81.542 C 192.491 81.335,192.491 80.998,192.451 80.792 C 192.411 80.585,192.379 80.754,192.379 81.167 M267.160 81.375 C 267.850 82.111,268.000 82.243,268.000 82.118 C 268.000 82.091,267.644 81.735,267.208 81.326 L 266.417 80.583 267.160 81.375 M127.460 83.285 C 127.668 83.324,127.968 83.323,128.127 83.281 C 128.286 83.239,128.117 83.207,127.750 83.209 C 127.383 83.211,127.253 83.245,127.460 83.285 M233.542 83.282 C 233.702 83.323,233.965 83.323,234.125 83.282 C 234.285 83.240,234.154 83.205,233.833 83.205 C 233.512 83.205,233.381 83.240,233.542 83.282 M362.014 85.893 C 362.052 85.926,362.308 86.003,362.583 86.065 C 362.948 86.147,363.016 86.131,362.833 86.008 C 362.608 85.855,361.847 85.749,362.014 85.893 M362.917 91.500 C 362.623 91.626,362.640 91.645,363.052 91.655 C 363.324 91.662,363.477 91.597,363.417 91.500 C 363.360 91.408,363.299 91.339,363.282 91.345 C 363.264 91.351,363.100 91.421,362.917 91.500 " stroke="none" fill="#fcfcfc" fill-rule="evenodd"></path><path id="path1" d="M97.065 37.833 C 97.065 39.071,97.092 39.577,97.124 38.958 C 97.156 38.340,97.156 37.327,97.124 36.708 C 97.092 36.090,97.065 36.596,97.065 37.833 M271.056 63.083 C 271.047 70.142,271.087 76.138,271.145 76.409 C 271.243 76.866,271.221 57.267,271.119 52.417 C 271.093 51.225,271.065 56.025,271.056 63.083 M325.269 51.834 C 324.938 52.201,324.667 52.553,324.667 52.617 C 324.667 52.681,324.723 52.662,324.792 52.575 C 324.861 52.488,325.176 52.135,325.491 51.792 C 325.807 51.448,326.022 51.167,325.969 51.167 C 325.916 51.167,325.601 51.467,325.269 51.834 M97.042 52.583 C 97.044 52.950,97.078 53.080,97.118 52.873 C 97.158 52.666,97.156 52.366,97.115 52.206 C 97.073 52.047,97.040 52.217,97.042 52.583 M335.438 52.854 C 335.299 53.549,335.433 53.684,335.583 53.000 C 335.647 52.712,335.664 52.441,335.621 52.399 C 335.579 52.357,335.496 52.561,335.438 52.854 M97.048 55.250 C 97.049 55.708,97.081 55.876,97.120 55.623 C 97.158 55.369,97.157 54.994,97.117 54.789 C 97.078 54.584,97.046 54.792,97.048 55.250 M297.667 56.002 C 297.977 56.200,298.452 56.213,298.567 56.027 C 298.614 55.950,298.375 55.877,298.035 55.865 C 297.584 55.848,297.484 55.886,297.667 56.002 M328.553 58.167 C 328.553 58.762,328.584 59.006,328.621 58.708 C 328.658 58.410,328.658 57.923,328.621 57.625 C 328.584 57.327,328.553 57.571,328.553 58.167 M97.042 58.250 C 97.044 58.617,97.078 58.747,97.118 58.540 C 97.158 58.332,97.156 58.032,97.115 57.873 C 97.073 57.714,97.040 57.883,97.042 58.250 M358.243 58.876 C 358.198 58.991,358.182 61.635,358.206 64.751 L 358.250 70.417 358.333 64.542 C 358.379 61.310,358.396 58.667,358.370 58.667 C 358.344 58.667,358.287 58.761,358.243 58.876 M225.887 60.167 C 225.887 60.762,225.917 61.006,225.954 60.708 C 225.991 60.410,225.991 59.923,225.954 59.625 C 225.917 59.327,225.887 59.571,225.887 60.167 M352.727 60.667 C 352.727 61.538,352.755 61.894,352.789 61.458 C 352.824 61.023,352.824 60.310,352.789 59.875 C 352.755 59.440,352.727 59.796,352.727 60.667 M158.576 67.417 C 158.576 71.358,158.598 72.947,158.625 70.947 C 158.651 68.947,158.651 65.722,158.625 63.780 C 158.598 61.839,158.576 63.475,158.576 67.417 M195.583 61.000 C 195.941 61.367,196.272 61.667,196.318 61.667 C 196.363 61.667,196.108 61.367,195.750 61.000 C 195.392 60.633,195.062 60.333,195.016 60.333 C 194.970 60.333,195.225 60.633,195.583 61.000 M181.412 61.297 C 181.226 61.455,180.903 61.883,180.694 62.250 C 180.485 62.617,180.450 62.731,180.615 62.504 C 180.781 62.277,181.131 61.846,181.392 61.546 C 181.918 60.942,181.925 60.863,181.412 61.297 M127.583 63.167 C 127.767 63.245,128.029 63.310,128.167 63.310 C 128.324 63.310,128.293 63.257,128.083 63.167 C 127.900 63.088,127.638 63.023,127.500 63.023 C 127.342 63.023,127.373 63.076,127.583 63.167 M300.879 64.500 C 300.879 64.912,300.911 65.081,300.951 64.875 C 300.991 64.669,300.991 64.331,300.951 64.125 C 300.911 63.919,300.879 64.087,300.879 64.500 M328.545 64.667 C 328.545 65.079,328.578 65.248,328.618 65.042 C 328.657 64.835,328.657 64.498,328.618 64.292 C 328.578 64.085,328.545 64.254,328.545 64.667 M183.160 65.289 C 182.751 65.723,182.610 65.910,182.846 65.704 C 183.082 65.498,183.325 65.368,183.387 65.415 C 183.449 65.462,183.462 65.449,183.415 65.387 C 183.368 65.325,183.494 65.100,183.694 64.887 C 183.894 64.674,184.023 64.500,183.980 64.500 C 183.938 64.500,183.568 64.855,183.160 65.289 M166.075 65.375 L 165.417 66.083 166.125 65.425 C 166.784 64.812,166.910 64.667,166.784 64.667 C 166.757 64.667,166.438 64.985,166.075 65.375 M122.135 65.292 C 121.841 65.634,121.621 66.000,121.709 66.000 C 121.743 66.000,121.937 65.775,122.140 65.500 C 122.542 64.957,122.538 64.822,122.135 65.292 M300.907 70.250 C 300.907 73.000,300.930 74.148,300.958 72.802 C 300.986 71.456,300.986 69.206,300.958 67.802 C 300.930 66.398,300.907 67.500,300.907 70.250 M328.539 66.333 C 328.539 66.654,328.573 66.785,328.615 66.625 C 328.657 66.465,328.657 66.202,328.615 66.042 C 328.573 65.881,328.539 66.012,328.539 66.333 M175.258 66.417 C 175.323 66.692,175.440 66.987,175.519 67.072 C 175.597 67.158,175.589 66.979,175.502 66.674 C 175.299 65.966,175.102 65.758,175.258 66.417 M328.555 68.083 C 328.555 68.725,328.586 68.967,328.622 68.621 C 328.658 68.275,328.657 67.750,328.620 67.455 C 328.583 67.159,328.554 67.442,328.555 68.083 M192.624 75.616 C 192.647 79.616,192.703 82.926,192.749 82.972 C 192.878 83.100,192.826 68.957,192.697 68.631 C 192.634 68.474,192.602 71.617,192.624 75.616 M328.542 70.250 C 328.544 70.617,328.578 70.747,328.618 70.540 C 328.658 70.332,328.656 70.032,328.615 69.873 C 328.573 69.714,328.540 69.883,328.542 70.250 M225.909 71.246 C 225.970 71.702,226.061 72.114,226.111 72.163 C 226.161 72.211,226.152 71.877,226.091 71.421 C 226.030 70.965,225.939 70.552,225.889 70.504 C 225.839 70.456,225.848 70.790,225.909 71.246 M129.441 71.772 C 128.242 72.140,128.577 72.192,129.835 71.833 C 130.430 71.663,130.767 71.524,130.583 71.523 C 130.400 71.523,129.886 71.635,129.441 71.772 M181.235 74.333 C 181.235 75.938,181.260 76.594,181.291 75.792 C 181.321 74.990,181.321 73.677,181.291 72.875 C 181.260 72.073,181.235 72.729,181.235 74.333 M328.572 77.500 C 328.572 79.837,328.596 80.794,328.625 79.625 C 328.653 78.456,328.653 76.544,328.625 75.375 C 328.596 74.206,328.572 75.162,328.572 77.500 M115.555 74.736 C 115.616 74.896,115.667 75.096,115.667 75.180 C 115.667 75.264,115.735 75.333,115.818 75.333 C 116.012 75.333,115.849 74.696,115.618 74.553 C 115.508 74.485,115.485 74.553,115.555 74.736 M158.563 76.667 C 158.563 77.721,158.590 78.152,158.623 77.625 C 158.656 77.098,158.656 76.235,158.623 75.708 C 158.590 75.181,158.563 75.612,158.563 76.667 M300.883 76.167 C 300.883 76.671,300.915 76.877,300.953 76.625 C 300.991 76.373,300.991 75.960,300.953 75.708 C 300.915 75.456,300.883 75.662,300.883 76.167 M132.667 76.525 C 132.346 76.806,132.234 76.960,132.419 76.867 C 132.723 76.713,133.478 75.991,133.317 76.007 C 133.280 76.010,132.987 76.244,132.667 76.525 M137.000 76.550 C 137.000 76.583,137.319 76.862,137.708 77.168 C 138.330 77.657,138.366 77.669,138.000 77.264 C 137.620 76.844,137.000 76.401,137.000 76.550 M300.894 78.750 C 300.895 79.667,300.923 80.020,300.956 79.536 C 300.990 79.052,300.990 78.302,300.956 77.869 C 300.921 77.437,300.894 77.833,300.894 78.750 M355.318 78.205 C 355.539 78.456,355.859 78.705,356.029 78.759 C 356.199 78.813,356.298 78.922,356.250 79.000 C 356.201 79.079,356.232 79.188,356.319 79.241 C 356.406 79.295,356.522 79.266,356.577 79.177 C 356.632 79.088,356.469 78.885,356.214 78.727 C 355.959 78.568,355.563 78.284,355.333 78.094 L 354.917 77.750 355.318 78.205 M275.833 78.907 C 275.833 79.131,275.895 79.352,275.970 79.398 C 276.045 79.444,276.074 79.261,276.034 78.991 C 275.947 78.396,275.833 78.348,275.833 78.907 M41.406 83.167 C 41.406 85.504,41.429 86.460,41.458 85.292 C 41.487 84.123,41.487 82.210,41.458 81.042 C 41.429 79.873,41.406 80.829,41.406 83.167 M181.205 79.833 C 181.205 80.154,181.240 80.285,181.282 80.125 C 181.323 79.965,181.323 79.702,181.282 79.542 C 181.240 79.381,181.205 79.512,181.205 79.833 M276.055 80.236 C 276.116 80.396,276.167 80.746,276.167 81.014 C 276.167 81.281,276.225 81.500,276.296 81.500 C 276.488 81.500,276.328 80.183,276.121 80.055 C 276.008 79.985,275.984 80.051,276.055 80.236 M366.542 80.172 C 365.984 80.396,366.088 80.510,366.667 80.308 C 366.942 80.212,367.167 80.104,367.167 80.067 C 367.167 79.968,366.964 80.002,366.542 80.172 M225.872 80.667 C 225.872 80.987,225.906 81.119,225.948 80.958 C 225.990 80.798,225.990 80.535,225.948 80.375 C 225.906 80.215,225.872 80.346,225.872 80.667 M225.906 85.833 C 225.906 88.354,225.930 89.385,225.958 88.125 C 225.986 86.865,225.986 84.802,225.958 83.542 C 225.930 82.281,225.906 83.313,225.906 85.833 M267.954 81.846 C 268.157 82.058,268.366 82.190,268.417 82.138 C 268.468 82.087,268.302 81.913,268.047 81.752 L 267.583 81.460 267.954 81.846 M367.125 85.448 C 366.965 85.490,366.833 85.597,366.833 85.685 C 366.833 85.777,366.992 85.762,367.208 85.650 C 367.833 85.325,367.810 85.269,367.125 85.448 M353.575 86.182 C 353.429 86.466,353.338 86.727,353.375 86.763 C 353.411 86.800,353.565 86.568,353.717 86.248 C 354.060 85.529,353.941 85.474,353.575 86.182 M371.917 88.292 C 371.183 88.995,370.808 89.410,371.083 89.215 C 371.577 88.864,373.478 86.994,373.328 87.007 C 373.285 87.011,372.650 87.589,371.917 88.292 " stroke="none" fill="#f4f4f4" fill-rule="evenodd"></path><path id="path2" d="M24.897 23.340 C 24.171 23.699,23.538 24.323,22.996 25.212 C 22.682 25.727,22.668 26.089,22.667 33.712 L 22.667 41.675 23.094 41.837 C 23.367 41.941,36.692 42.000,59.974 42.000 C 98.546 42.000,97.167 42.025,97.167 41.324 C 97.167 41.237,97.017 41.317,96.833 41.500 C 96.424 41.909,23.608 42.041,23.200 41.633 C 23.050 41.484,23.000 39.510,23.000 33.779 L 23.000 26.125 23.429 25.170 C 23.761 24.429,24.013 24.125,24.554 23.816 L 25.250 23.417 59.667 23.371 C 90.640 23.330,94.153 23.352,94.777 23.588 C 95.940 24.027,96.701 24.983,97.006 26.388 L 97.157 27.083 97.095 26.378 C 96.992 25.213,96.437 24.290,95.456 23.652 L 94.583 23.083 60.083 23.041 C 25.630 22.999,25.582 22.999,24.897 23.340 M97.055 28.583 C 97.055 29.225,97.086 29.467,97.122 29.121 C 97.158 28.775,97.157 28.250,97.120 27.955 C 97.083 27.659,97.054 27.942,97.055 28.583 M97.058 31.167 C 97.058 31.946,97.087 32.265,97.122 31.875 C 97.157 31.485,97.157 30.848,97.122 30.458 C 97.087 30.069,97.058 30.387,97.058 31.167 M97.060 34.167 C 97.060 35.037,97.088 35.394,97.123 34.958 C 97.157 34.523,97.157 33.810,97.123 33.375 C 97.088 32.940,97.060 33.296,97.060 34.167 M23.037 49.259 L 22.667 49.519 22.667 72.234 L 22.667 94.950 23.145 95.600 C 24.583 97.553,24.296 97.500,33.465 97.500 C 40.649 97.500,41.229 97.479,41.435 97.208 C 41.836 96.679,41.765 49.640,41.362 49.276 C 40.912 48.868,23.618 48.853,23.037 49.259 M72.900 49.125 C 97.996 49.170,96.979 49.134,97.023 49.979 C 97.044 50.390,97.050 50.393,97.119 50.028 C 97.331 48.917,99.247 48.995,72.933 49.041 L 49.250 49.082 72.900 49.125 M331.960 49.118 C 332.168 49.158,332.468 49.156,332.627 49.115 C 332.786 49.073,332.617 49.040,332.250 49.042 C 331.883 49.044,331.753 49.078,331.960 49.118 M41.268 49.458 C 41.604 49.901,41.606 96.704,41.270 96.983 C 41.106 97.119,38.852 97.179,33.359 97.192 L 25.677 97.211 24.788 96.776 C 24.132 96.455,23.792 96.154,23.491 95.629 L 23.083 94.917 23.039 72.270 C 23.007 55.546,23.045 49.563,23.185 49.395 C 23.511 49.001,40.968 49.063,41.268 49.458 M48.792 49.399 C 48.303 49.770,48.344 96.677,48.833 97.167 C 49.635 97.968,95.667 97.618,95.667 96.811 C 95.667 96.731,95.760 96.666,95.875 96.665 C 96.110 96.662,96.836 95.618,96.828 95.294 C 96.825 95.178,96.742 95.223,96.643 95.394 C 96.309 95.968,94.845 97.204,94.560 97.153 C 94.481 97.139,94.342 97.137,94.250 97.148 C 93.112 97.293,49.241 97.131,49.060 96.981 C 48.745 96.719,48.719 49.681,49.033 49.367 C 49.298 49.102,49.158 49.121,48.792 49.399 M270.947 49.273 C 271.097 49.334,271.148 52.538,271.161 62.469 C 271.169 69.682,271.222 75.883,271.278 76.250 C 271.390 76.990,271.643 77.579,271.787 77.435 C 271.839 77.383,271.776 77.216,271.649 77.062 C 271.455 76.828,271.417 74.547,271.417 63.099 C 271.417 49.760,271.395 49.152,270.917 49.182 C 270.825 49.188,270.839 49.229,270.947 49.273 M265.340 62.917 C 265.330 70.387,265.386 76.500,265.464 76.500 C 265.543 76.500,265.624 76.880,265.646 77.344 C 265.746 79.555,267.233 81.999,268.789 82.513 C 269.088 82.612,269.333 82.751,269.333 82.822 C 269.333 83.131,271.570 83.324,272.625 83.105 C 273.198 82.987,273.668 82.933,273.669 82.987 C 273.671 83.040,273.727 83.004,273.794 82.908 C 273.862 82.812,274.272 82.600,274.707 82.437 C 275.141 82.274,275.535 82.079,275.582 82.003 C 275.628 81.927,275.292 82.008,274.833 82.182 C 271.527 83.438,268.799 82.987,267.225 80.922 C 266.740 80.287,266.376 79.735,266.415 79.696 C 266.455 79.657,266.381 79.420,266.252 79.170 C 265.748 78.196,265.667 75.900,265.667 62.629 C 265.667 54.593,265.606 49.333,265.512 49.333 C 265.419 49.333,265.351 54.717,265.340 62.917 M296.048 49.875 C 294.756 50.788,294.342 52.917,295.141 54.542 C 295.355 54.977,295.621 55.333,295.733 55.333 C 295.845 55.333,296.102 55.487,296.304 55.675 C 296.506 55.863,296.754 55.965,296.857 55.902 C 296.967 55.834,296.842 55.704,296.546 55.579 C 296.273 55.464,295.874 55.081,295.659 54.727 C 295.444 54.373,295.208 54.042,295.135 53.991 C 294.879 53.813,294.777 52.352,295.001 52.082 C 295.118 51.941,295.171 51.783,295.119 51.730 C 294.901 51.512,296.133 49.902,296.689 49.679 C 296.906 49.592,296.970 49.516,296.831 49.511 C 296.692 49.505,296.340 49.669,296.048 49.875 M299.873 49.958 C 300.200 50.210,300.577 50.595,300.711 50.813 C 300.857 51.050,300.998 51.138,301.064 51.032 C 301.212 50.792,299.962 49.500,299.582 49.500 C 299.360 49.500,299.438 49.622,299.873 49.958 M334.833 49.703 C 335.063 49.815,335.305 49.985,335.372 50.079 C 335.440 50.173,335.496 50.191,335.497 50.119 C 335.499 50.046,335.656 50.132,335.846 50.310 L 336.193 50.632 335.752 52.191 C 335.510 53.049,335.300 53.881,335.287 54.042 C 335.273 54.202,335.203 54.333,335.131 54.333 C 335.059 54.333,335.000 54.483,335.000 54.667 C 335.000 54.852,334.889 55.000,334.750 55.000 C 334.612 55.000,334.500 54.921,334.500 54.823 C 334.500 54.726,334.425 54.693,334.333 54.750 C 334.242 54.807,334.167 54.783,334.167 54.697 C 334.167 54.513,332.229 54.000,331.532 54.000 C 329.621 54.000,328.679 55.261,328.617 57.902 L 328.583 59.334 331.708 59.334 L 334.833 59.333 334.833 61.583 C 334.833 62.972,334.897 63.833,335.000 63.833 C 335.103 63.833,335.167 62.974,335.167 61.589 C 335.167 58.819,335.408 59.000,331.711 59.000 L 328.901 59.000 328.927 57.621 C 328.967 55.553,329.102 55.271,330.379 54.595 C 331.153 54.185,332.466 54.300,333.910 54.903 C 335.075 55.390,335.220 55.275,335.685 53.496 C 335.887 52.719,336.098 52.046,336.152 52.000 C 337.020 51.264,336.299 49.950,334.833 49.598 L 334.417 49.498 334.833 49.703 M326.561 50.320 C 325.620 50.948,324.833 51.697,324.833 51.963 C 324.833 52.033,324.614 52.356,324.347 52.681 C 323.827 53.312,323.244 54.843,323.387 55.200 C 323.435 55.320,323.480 55.262,323.487 55.069 C 323.494 54.878,323.556 54.666,323.625 54.597 C 323.694 54.528,323.754 54.422,323.758 54.361 C 323.836 53.252,326.298 50.499,327.833 49.803 C 328.045 49.707,328.042 49.688,327.811 49.678 C 327.661 49.672,327.098 49.960,326.561 50.320 M97.045 53.833 C 97.045 54.246,97.078 54.415,97.118 54.208 C 97.157 54.002,97.157 53.665,97.118 53.458 C 97.078 53.252,97.045 53.421,97.045 53.833 M300.412 54.884 C 299.675 55.663,299.285 55.930,298.974 55.869 C 298.822 55.839,298.649 55.894,298.589 55.991 C 298.108 56.770,300.077 55.784,300.741 54.914 C 301.293 54.190,301.088 54.171,300.412 54.884 M323.205 56.167 C 323.205 56.487,323.240 56.619,323.282 56.458 C 323.323 56.298,323.323 56.035,323.282 55.875 C 323.240 55.715,323.205 55.846,323.205 56.167 M297.083 56.000 C 297.024 56.096,297.178 56.166,297.448 56.164 C 297.812 56.162,297.861 56.125,297.667 56.000 C 297.346 55.793,297.211 55.793,297.083 56.000 M97.050 56.833 C 97.050 57.337,97.081 57.544,97.119 57.292 C 97.158 57.040,97.158 56.627,97.119 56.375 C 97.081 56.123,97.050 56.329,97.050 56.833 M323.079 70.167 C 323.079 76.996,323.100 79.790,323.125 76.375 C 323.150 72.960,323.150 67.373,323.125 63.958 C 323.100 60.544,323.079 63.337,323.079 70.167 M125.250 58.258 C 125.158 58.283,124.502 58.434,123.792 58.593 C 123.081 58.753,122.500 58.932,122.500 58.991 C 122.500 59.051,122.232 59.197,121.904 59.315 C 120.796 59.716,121.435 59.669,122.633 59.262 C 125.561 58.265,129.101 58.288,132.020 59.321 C 132.743 59.576,133.333 59.755,133.333 59.718 C 133.333 59.619,132.106 59.099,131.958 59.136 C 131.890 59.153,131.833 59.107,131.833 59.033 C 131.833 58.492,126.641 57.880,125.250 58.258 M158.605 58.420 C 158.535 58.603,159.012 58.639,161.204 58.614 C 163.222 58.591,163.906 58.530,163.960 58.369 C 164.067 58.048,158.728 58.099,158.605 58.420 M170.250 58.260 C 170.067 58.302,169.504 58.420,169.000 58.522 C 168.496 58.623,167.671 58.927,167.167 59.196 C 166.662 59.465,166.400 59.634,166.583 59.572 C 170.484 58.257,173.673 58.176,176.275 59.327 C 177.083 59.685,177.487 59.681,176.806 59.322 C 176.592 59.209,176.379 59.068,176.333 59.008 C 175.955 58.516,171.512 57.970,170.250 58.260 M186.667 58.350 C 184.471 58.681,181.587 60.449,180.498 62.133 C 180.250 62.515,180.249 62.514,179.510 61.535 C 178.903 60.729,177.833 59.806,177.833 60.087 C 177.833 60.127,178.217 60.554,178.685 61.038 C 179.153 61.521,179.670 62.206,179.833 62.559 L 180.128 63.201 180.590 62.392 C 181.415 60.945,183.208 59.652,185.221 59.053 C 186.334 58.721,190.043 58.323,190.242 58.514 C 190.329 58.598,190.629 58.669,190.908 58.671 C 191.347 58.675,192.837 59.129,193.917 59.587 C 194.214 59.714,194.225 59.698,194.021 59.448 C 193.895 59.293,193.652 59.167,193.480 59.167 C 193.307 59.167,193.167 59.099,193.167 59.016 C 193.167 58.426,188.995 57.999,186.667 58.350 M220.590 58.323 C 220.402 58.626,220.861 58.681,223.371 58.658 L 225.917 58.634 225.917 60.150 C 225.917 60.984,225.926 61.667,225.938 61.667 C 225.950 61.667,226.353 61.292,226.833 60.833 C 227.314 60.375,227.626 60.000,227.528 60.000 C 227.429 60.000,227.161 60.188,226.932 60.417 C 226.356 60.992,226.334 60.969,226.328 59.792 C 226.320 58.205,226.348 58.220,223.300 58.192 C 221.849 58.179,220.643 58.237,220.590 58.323 M231.500 58.337 C 231.088 58.409,230.544 58.548,230.292 58.647 C 230.040 58.745,229.833 58.778,229.833 58.720 C 229.833 58.662,229.702 58.727,229.542 58.863 C 229.381 59.000,229.004 59.209,228.703 59.328 C 227.706 59.723,228.257 59.673,229.478 59.257 C 231.628 58.526,233.447 58.357,235.722 58.676 C 236.348 58.764,236.923 58.797,237.000 58.750 C 237.076 58.703,237.163 58.726,237.194 58.802 C 237.263 58.972,238.879 59.510,238.989 59.400 C 239.033 59.356,238.903 59.277,238.701 59.224 C 238.499 59.171,238.333 59.062,238.333 58.981 C 238.333 58.900,238.198 58.833,238.033 58.833 C 237.868 58.833,237.643 58.743,237.533 58.633 C 237.423 58.523,237.333 58.477,237.333 58.529 C 237.333 58.582,236.865 58.525,236.292 58.402 C 235.164 58.160,232.704 58.127,231.500 58.337 M295.261 58.449 C 295.049 59.000,295.160 82.787,295.375 82.959 C 295.675 83.198,300.603 83.238,300.749 83.002 C 300.831 82.869,300.117 82.831,298.181 82.867 L 295.500 82.917 295.500 70.750 L 295.500 58.583 298.125 58.583 C 299.764 58.583,300.750 58.521,300.750 58.417 C 300.750 58.121,295.374 58.153,295.261 58.449 M352.823 58.429 C 352.706 58.570,352.720 58.629,352.869 58.623 C 352.987 58.618,354.283 58.626,355.750 58.640 L 358.417 58.667 358.376 65.042 C 358.354 68.548,358.387 71.529,358.450 71.667 C 358.513 71.804,358.576 71.992,358.591 72.083 C 358.656 72.500,359.176 73.465,359.449 73.677 C 359.731 73.896,359.734 73.890,359.491 73.580 C 358.763 72.654,358.752 72.537,358.707 65.583 C 358.684 61.917,358.626 58.748,358.579 58.541 C 358.478 58.100,353.183 57.996,352.823 58.429 M370.206 58.369 C 370.259 58.529,370.942 58.595,372.895 58.629 L 375.513 58.675 375.463 70.463 L 375.413 82.250 374.946 83.750 C 373.655 87.904,369.483 91.167,365.465 91.167 C 365.026 91.167,364.667 91.235,364.667 91.318 C 364.667 91.401,364.498 91.433,364.292 91.390 C 363.960 91.320,363.951 91.332,364.210 91.498 C 364.371 91.600,364.588 91.632,364.693 91.567 C 364.798 91.502,365.248 91.462,365.692 91.478 C 366.148 91.494,366.500 91.432,366.500 91.336 C 366.500 91.243,366.669 91.166,366.875 91.165 C 367.287 91.162,368.917 90.671,369.833 90.274 C 371.194 89.683,373.283 87.707,374.087 86.250 C 375.926 82.915,375.833 83.786,375.833 69.917 C 375.833 60.386,375.794 58.354,375.609 58.283 C 375.065 58.074,370.134 58.153,370.206 58.369 M164.135 59.942 C 164.104 60.845,164.107 61.645,164.140 61.721 C 164.239 61.941,164.674 61.216,164.591 60.972 C 164.549 60.850,164.476 60.233,164.428 59.602 C 164.303 57.942,164.198 58.064,164.135 59.942 M97.045 59.500 C 97.045 59.913,97.078 60.081,97.118 59.875 C 97.157 59.669,97.157 59.331,97.118 59.125 C 97.078 58.919,97.045 59.087,97.045 59.500 M158.548 59.583 C 158.549 60.042,158.581 60.209,158.620 59.956 C 158.658 59.703,158.657 59.328,158.617 59.123 C 158.578 58.918,158.546 59.125,158.548 59.583 M352.500 64.990 C 352.500 69.280,352.554 71.014,352.689 71.097 C 352.830 71.184,352.862 69.636,352.814 65.107 C 352.779 61.749,352.694 59.000,352.625 59.000 C 352.556 59.000,352.500 61.696,352.500 64.990 M120.244 60.136 C 118.362 61.388,116.922 62.994,116.331 64.500 C 116.205 64.821,116.052 65.121,115.990 65.167 C 115.802 65.307,115.635 66.000,115.789 66.000 C 115.869 66.000,116.067 65.629,116.230 65.176 C 116.393 64.723,116.639 64.259,116.776 64.145 C 116.912 64.032,117.163 63.671,117.333 63.344 C 117.503 63.018,117.857 62.525,118.120 62.250 C 118.754 61.588,120.165 60.333,120.276 60.333 C 120.324 60.333,120.555 60.183,120.788 60.000 C 121.400 59.519,121.034 59.610,120.244 60.136 M195.190 60.476 C 195.707 60.944,196.278 61.610,196.459 61.955 C 196.640 62.301,196.951 62.872,197.151 63.225 C 198.029 64.781,198.059 65.119,198.126 74.292 L 198.188 82.833 195.469 82.853 C 193.974 82.864,192.688 82.862,192.613 82.849 C 192.537 82.836,192.518 82.894,192.570 82.979 C 192.757 83.281,197.866 83.189,198.209 82.878 C 198.585 82.538,198.649 66.836,198.275 66.831 C 198.169 66.829,198.196 66.756,198.333 66.667 C 198.500 66.559,198.514 66.504,198.375 66.503 C 198.254 66.501,198.167 66.284,198.167 65.982 C 198.167 63.903,196.551 61.043,194.750 59.933 C 194.475 59.764,194.673 60.008,195.190 60.476 M240.274 60.253 C 240.329 60.397,240.408 60.481,240.448 60.441 C 240.531 60.357,240.912 60.684,242.265 62.000 C 243.046 62.759,244.369 64.940,244.591 65.833 C 244.603 65.879,244.656 66.029,244.710 66.167 C 245.182 67.371,245.250 67.939,245.250 70.667 C 245.250 73.442,245.067 74.877,244.642 75.432 C 244.566 75.532,244.552 75.663,244.613 75.724 C 244.673 75.784,244.635 75.833,244.528 75.833 C 244.421 75.833,244.333 75.908,244.333 76.000 C 244.333 76.982,242.244 79.739,240.708 80.783 C 240.107 81.192,240.277 81.356,240.913 80.980 C 242.550 80.014,244.525 77.098,245.189 74.667 C 245.301 74.254,245.405 73.879,245.418 73.833 C 245.699 72.879,245.858 70.632,245.635 70.769 C 245.515 70.844,245.508 70.790,245.613 70.601 C 246.151 69.640,244.752 64.574,243.581 63.243 C 243.342 62.972,243.044 62.557,242.918 62.320 C 242.791 62.084,242.327 61.599,241.886 61.243 C 241.444 60.886,241.046 60.547,241.000 60.489 C 240.761 60.186,240.176 59.996,240.274 60.253 M164.942 60.471 C 164.538 60.919,164.606 61.047,165.083 60.735 C 165.492 60.467,165.638 60.167,165.359 60.167 C 165.282 60.167,165.094 60.304,164.942 60.471 M220.375 60.750 C 220.377 61.117,220.411 61.247,220.451 61.040 C 220.491 60.832,220.490 60.532,220.448 60.373 C 220.406 60.214,220.374 60.383,220.375 60.750 M97.056 61.500 C 97.056 62.188,97.085 62.469,97.121 62.125 C 97.157 61.781,97.157 61.219,97.121 60.875 C 97.085 60.531,97.056 60.813,97.056 61.500 M135.354 61.625 C 135.946 62.244,136.606 62.938,136.822 63.167 L 137.215 63.583 136.830 62.881 C 136.407 62.108,134.827 60.500,134.491 60.500 C 134.374 60.500,134.763 61.006,135.354 61.625 M220.390 62.917 C 220.391 63.650,220.420 63.929,220.456 63.537 C 220.491 63.145,220.490 62.545,220.454 62.204 C 220.419 61.863,220.390 62.183,220.390 62.917 M97.057 64.083 C 97.058 64.817,97.087 65.096,97.122 64.704 C 97.157 64.312,97.157 63.712,97.121 63.371 C 97.085 63.029,97.057 63.350,97.057 64.083 M232.708 63.448 C 232.869 63.490,233.131 63.490,233.292 63.448 C 233.452 63.406,233.321 63.372,233.000 63.372 C 232.679 63.372,232.548 63.406,232.708 63.448 M123.292 64.337 C 122.856 64.610,122.500 64.892,122.500 64.963 C 122.500 65.034,122.263 65.352,121.974 65.669 C 121.364 66.336,120.886 67.582,120.690 69.011 C 120.574 69.864,120.680 70.494,120.861 70.023 C 120.892 69.944,121.767 69.642,122.807 69.353 C 123.847 69.064,125.009 68.687,125.390 68.515 C 125.771 68.343,126.554 68.071,127.130 67.911 C 127.705 67.751,128.146 67.590,128.109 67.554 C 128.029 67.473,124.044 68.574,123.000 68.966 C 122.587 69.120,122.212 69.254,122.167 69.263 C 122.121 69.271,121.872 69.365,121.614 69.472 C 120.928 69.757,120.833 69.720,120.833 69.167 C 120.833 68.892,120.921 68.667,121.028 68.667 C 121.135 68.667,121.178 68.623,121.125 68.569 C 120.827 68.272,122.202 65.414,122.868 64.945 C 123.411 64.563,124.266 63.835,124.167 63.837 C 124.121 63.839,123.727 64.063,123.292 64.337 M130.583 64.034 C 130.970 64.255,131.953 65.282,132.186 65.710 C 132.361 66.029,132.121 66.174,131.030 66.411 C 130.725 66.478,130.516 66.571,130.564 66.620 C 130.665 66.720,132.833 66.161,132.833 66.034 C 132.833 65.598,130.883 63.827,130.417 63.839 C 130.325 63.841,130.400 63.929,130.583 64.034 M172.500 64.063 C 172.729 64.197,172.948 64.275,172.986 64.236 C 173.089 64.133,172.964 64.054,172.500 63.930 L 172.083 63.819 172.500 64.063 M189.417 64.024 C 189.600 64.137,189.750 64.200,189.750 64.164 C 189.750 64.049,190.558 64.728,191.274 65.444 C 191.655 65.826,192.019 66.375,192.083 66.664 C 192.146 66.954,192.240 67.149,192.290 67.099 C 192.645 66.744,191.277 64.734,190.366 64.271 C 189.707 63.936,188.960 63.741,189.417 64.024 M229.431 64.172 C 227.494 65.139,226.112 67.648,225.992 70.417 C 225.941 71.582,226.347 73.376,226.915 74.498 C 227.552 75.753,229.961 77.801,230.250 77.333 C 230.307 77.241,230.275 77.167,230.179 77.167 C 229.184 77.167,227.287 75.008,226.669 73.172 C 226.155 71.648,226.252 67.982,226.819 67.500 C 226.928 67.407,227.282 66.807,227.611 66.155 C 227.869 65.646,228.553 65.014,229.487 64.425 C 230.486 63.794,230.456 63.661,229.431 64.172 M236.247 64.207 C 236.520 64.414,237.265 65.105,237.902 65.744 C 239.031 66.873,239.050 66.885,238.655 66.180 C 238.169 65.313,237.020 64.263,236.283 64.012 L 235.750 63.831 236.247 64.207 M328.613 73.333 L 328.642 82.833 325.863 82.844 C 324.058 82.851,323.213 82.907,323.453 83.003 C 323.999 83.223,328.648 83.165,328.789 82.936 C 328.852 82.834,328.892 78.533,328.877 73.379 L 328.849 64.008 331.800 63.958 L 334.750 63.908 331.667 63.871 L 328.583 63.833 328.613 73.333 M184.495 64.326 C 183.313 64.951,181.109 67.833,181.813 67.833 C 181.894 67.833,182.060 67.590,182.182 67.292 C 182.577 66.333,183.290 65.427,183.987 65.002 C 184.361 64.774,184.667 64.526,184.667 64.451 C 184.667 64.375,184.733 64.355,184.814 64.405 C 184.896 64.455,185.055 64.385,185.168 64.248 C 185.441 63.919,185.214 63.946,184.495 64.326 M166.418 65.231 C 164.345 67.263,164.167 68.174,164.167 76.762 L 164.167 82.833 161.417 82.833 L 158.667 82.833 158.631 80.958 L 158.596 79.083 158.542 80.893 C 158.507 82.065,158.554 82.781,158.676 82.928 C 158.901 83.200,163.884 83.182,164.158 82.909 C 164.259 82.807,164.341 80.134,164.370 75.928 C 164.406 70.638,164.464 69.095,164.626 69.041 C 164.741 69.003,164.794 68.905,164.744 68.824 C 164.626 68.632,165.651 66.167,165.849 66.167 C 165.932 66.167,166.000 66.066,166.000 65.943 C 166.000 65.820,166.409 65.426,166.909 65.068 C 167.408 64.710,167.821 64.360,167.825 64.292 C 167.846 63.966,167.412 64.256,166.418 65.231 M173.167 64.233 C 173.167 64.280,173.574 64.730,174.072 65.232 C 175.413 66.583,175.381 66.354,175.488 75.250 C 175.541 79.558,175.642 82.896,175.715 82.667 C 175.847 82.247,175.779 68.207,175.641 67.580 C 175.601 67.395,175.525 67.170,175.473 67.080 C 175.422 66.990,175.334 66.725,175.278 66.490 C 175.088 65.691,173.167 63.638,173.167 64.233 M137.769 65.278 C 137.833 65.537,137.940 65.772,138.008 65.800 C 138.076 65.827,138.093 65.996,138.046 66.175 C 137.999 66.354,138.041 66.500,138.139 66.500 C 138.240 66.500,138.290 66.717,138.254 67.000 C 138.219 67.275,138.265 67.500,138.356 67.500 C 138.447 67.500,138.498 67.736,138.469 68.025 C 138.440 68.314,138.499 68.579,138.601 68.614 C 138.960 68.739,138.207 65.148,137.824 64.911 C 137.713 64.842,137.694 64.971,137.769 65.278 M301.058 66.500 C 301.058 67.279,301.087 67.598,301.122 67.208 C 301.157 66.819,301.157 66.181,301.122 65.792 C 301.087 65.402,301.058 65.721,301.058 66.500 M192.387 74.789 C 192.391 78.935,192.454 82.422,192.527 82.539 C 192.697 82.806,192.678 69.404,192.507 68.167 C 192.438 67.662,192.384 70.642,192.387 74.789 M239.443 68.417 C 239.499 68.783,239.572 69.115,239.605 69.153 C 239.732 69.296,239.637 68.403,239.492 68.083 C 239.387 67.851,239.372 67.952,239.443 68.417 M181.498 68.198 C 181.497 68.318,181.450 68.698,181.393 69.042 C 181.336 69.385,181.356 69.667,181.437 69.667 C 181.517 69.667,181.593 69.498,181.605 69.292 C 181.616 69.085,181.668 68.749,181.719 68.545 C 181.771 68.341,181.742 68.130,181.656 68.077 C 181.570 68.024,181.499 68.079,181.498 68.198 M97.068 71.000 C 97.068 72.512,97.093 73.131,97.124 72.375 C 97.155 71.619,97.155 70.381,97.124 69.625 C 97.093 68.869,97.068 69.487,97.068 71.000 M137.333 69.293 C 136.829 69.440,136.393 69.617,136.364 69.687 C 136.335 69.757,136.204 69.773,136.073 69.723 C 135.941 69.672,135.833 69.700,135.833 69.784 C 135.833 69.868,135.454 70.034,134.990 70.153 C 134.526 70.272,134.182 70.404,134.224 70.446 C 134.267 70.489,134.815 70.376,135.442 70.197 C 136.070 70.017,136.940 69.770,137.375 69.648 C 137.810 69.527,138.167 69.374,138.167 69.309 C 138.167 69.244,138.298 69.157,138.458 69.115 C 138.654 69.064,138.668 69.037,138.500 69.033 C 138.362 69.030,137.837 69.147,137.333 69.293 M114.903 69.393 C 114.855 69.517,114.840 70.098,114.869 70.684 L 114.921 71.750 115.002 70.458 C 115.083 69.165,115.065 68.970,114.903 69.393 M239.667 70.472 C 239.667 71.129,239.737 71.667,239.823 71.667 C 240.005 71.667,239.976 69.587,239.791 69.402 C 239.723 69.334,239.667 69.815,239.667 70.472 M369.452 71.333 C 369.404 71.517,369.433 71.667,369.516 71.667 C 369.599 71.667,369.667 71.635,369.667 71.597 C 369.667 71.559,369.712 71.409,369.768 71.264 C 369.823 71.119,369.795 71.000,369.704 71.000 C 369.613 71.000,369.500 71.150,369.452 71.333 M131.333 71.351 C 131.333 71.453,131.226 71.494,131.094 71.444 C 130.963 71.393,130.831 71.406,130.802 71.473 C 130.774 71.539,129.719 71.886,128.458 72.245 C 127.198 72.604,126.167 72.956,126.167 73.027 C 126.167 73.098,126.054 73.113,125.917 73.060 C 125.779 73.008,125.667 73.047,125.667 73.149 C 125.667 73.250,125.718 73.333,125.781 73.333 C 126.028 73.333,127.922 72.768,128.000 72.671 C 128.046 72.614,128.925 72.316,129.953 72.009 C 130.981 71.702,131.783 71.387,131.735 71.309 C 131.609 71.105,131.333 71.134,131.333 71.351 M352.585 71.831 C 352.527 71.924,352.541 72.000,352.615 72.000 C 352.689 72.000,352.754 72.281,352.759 72.625 C 352.771 73.408,352.896 74.118,353.049 74.271 C 353.114 74.336,353.167 74.516,353.167 74.672 C 353.167 75.160,353.871 76.733,354.261 77.116 C 354.465 77.317,354.668 77.580,354.710 77.699 C 354.753 77.819,354.826 77.879,354.874 77.833 C 354.921 77.787,354.625 77.150,354.217 76.417 C 353.411 74.969,353.000 73.665,353.000 72.558 C 353.000 71.865,352.791 71.498,352.585 71.831 M369.006 72.319 C 368.116 74.469,364.375 75.978,361.935 75.173 C 361.592 75.059,361.262 75.016,361.202 75.076 C 361.052 75.226,361.536 75.514,361.786 75.422 C 361.898 75.381,362.034 75.420,362.088 75.507 C 362.225 75.729,364.454 75.709,364.592 75.485 C 364.654 75.386,364.861 75.345,365.052 75.395 C 365.243 75.445,365.478 75.427,365.575 75.355 C 365.671 75.283,366.109 75.091,366.548 74.929 C 367.730 74.493,369.101 73.187,369.406 72.208 C 369.577 71.657,369.241 71.751,369.006 72.319 M125.093 73.318 C 125.040 73.404,124.753 73.529,124.456 73.596 C 124.160 73.662,123.995 73.744,124.092 73.778 C 124.373 73.876,125.582 73.403,125.375 73.276 C 125.273 73.213,125.146 73.232,125.093 73.318 M97.078 83.750 C 97.078 89.250,97.099 91.476,97.125 88.696 C 97.151 85.917,97.151 81.417,97.125 78.696 C 97.099 75.976,97.078 78.250,97.078 83.750 M123.083 74.000 C 122.873 74.090,122.842 74.143,123.000 74.143 C 123.138 74.143,123.400 74.079,123.583 74.000 C 123.793 73.910,123.824 73.857,123.667 73.857 C 123.529 73.857,123.267 73.921,123.083 74.000 M359.746 74.174 C 359.691 74.262,359.831 74.404,360.057 74.490 C 360.283 74.576,360.517 74.726,360.577 74.823 C 360.637 74.920,360.776 74.998,360.885 74.995 C 360.994 74.992,360.933 74.878,360.750 74.742 C 360.567 74.605,360.288 74.386,360.131 74.253 C 359.962 74.111,359.804 74.079,359.746 74.174 M121.618 74.605 C 121.299 74.923,124.047 77.667,124.685 77.667 C 125.061 77.667,124.738 77.360,123.665 76.698 C 123.024 76.302,122.500 75.902,122.500 75.807 C 122.500 75.713,122.351 75.447,122.169 75.215 C 121.987 74.984,121.879 74.728,121.929 74.647 C 122.032 74.480,121.777 74.445,121.618 74.605 M133.601 75.353 C 132.767 76.189,131.490 77.163,131.220 77.170 C 131.145 77.172,130.896 77.319,130.667 77.497 C 130.264 77.809,130.263 77.817,130.625 77.724 C 130.831 77.671,131.000 77.562,131.000 77.481 C 131.000 77.400,131.056 77.348,131.125 77.366 C 131.411 77.442,132.048 77.105,132.630 76.571 C 132.971 76.258,133.290 76.001,133.340 76.001 C 133.389 76.000,133.712 75.662,134.056 75.250 C 134.897 74.244,134.653 74.299,133.601 75.353 M135.667 75.346 C 136.171 75.805,136.846 76.355,137.167 76.569 C 137.822 77.005,138.465 77.667,138.233 77.667 C 138.149 77.667,137.988 77.814,137.876 77.994 C 137.713 78.254,137.714 78.305,137.881 78.241 C 138.777 77.897,138.283 77.130,135.858 75.104 C 134.770 74.195,134.616 74.389,135.667 75.346 M237.989 75.516 C 237.491 76.075,236.753 76.701,236.349 76.907 C 235.901 77.136,235.690 77.328,235.808 77.401 C 235.913 77.466,236.000 77.456,236.000 77.379 C 236.000 77.301,236.166 77.225,236.368 77.210 C 236.571 77.195,236.852 77.043,236.993 76.872 C 237.135 76.701,237.460 76.432,237.716 76.272 C 237.972 76.113,238.252 75.818,238.339 75.616 C 238.426 75.415,238.619 75.081,238.769 74.875 C 239.264 74.192,238.907 74.485,237.989 75.516 M116.086 76.167 C 116.289 76.883,117.058 78.227,117.581 78.783 C 117.857 79.077,118.256 79.503,118.467 79.732 C 119.185 80.511,122.014 82.245,122.371 82.126 C 122.471 82.093,122.204 81.932,121.777 81.769 C 121.349 81.606,121.000 81.411,121.000 81.335 C 121.000 81.260,120.667 81.003,120.260 80.765 C 119.047 80.054,117.707 78.592,116.580 76.750 C 116.243 76.200,116.021 75.938,116.086 76.167 M274.217 77.000 C 273.652 77.307,273.435 77.503,273.592 77.564 C 273.725 77.615,273.833 77.579,273.833 77.485 C 273.833 77.391,273.908 77.360,274.000 77.417 C 274.092 77.473,274.167 77.436,274.167 77.333 C 274.167 77.231,274.223 77.181,274.292 77.222 C 274.360 77.264,274.677 77.118,274.995 76.899 C 275.783 76.356,275.282 76.421,274.217 77.000 M126.708 78.115 C 126.869 78.157,127.131 78.157,127.292 78.115 C 127.452 78.073,127.321 78.039,127.000 78.039 C 126.679 78.039,126.548 78.073,126.708 78.115 M275.980 78.703 C 276.057 79.166,276.080 79.189,276.133 78.856 C 276.167 78.639,276.126 78.393,276.042 78.309 C 275.950 78.216,275.925 78.372,275.980 78.703 M355.586 78.670 C 355.751 78.851,355.980 79.000,356.097 79.000 C 356.214 79.000,356.446 79.171,356.613 79.381 C 358.180 81.343,366.621 81.515,368.695 79.626 C 368.922 79.419,369.361 79.044,369.670 78.792 C 369.978 78.540,370.145 78.333,370.041 78.333 C 369.936 78.333,369.667 78.502,369.443 78.708 C 367.254 80.724,360.357 81.638,358.564 80.151 C 358.437 80.046,358.333 80.015,358.333 80.083 C 358.333 80.152,358.219 80.113,358.079 79.997 C 357.529 79.540,355.300 78.354,355.586 78.670 M137.070 78.878 C 136.634 79.345,135.205 80.537,134.712 80.844 C 134.507 80.972,134.302 81.175,134.255 81.297 C 134.153 81.563,134.273 81.496,135.510 80.593 C 136.441 79.913,137.830 78.497,137.561 78.503 C 137.482 78.505,137.261 78.673,137.070 78.878 M220.372 79.333 C 220.372 79.654,220.406 79.785,220.448 79.625 C 220.490 79.465,220.490 79.202,220.448 79.042 C 220.406 78.881,220.372 79.012,220.372 79.333 M276.135 79.611 C 276.082 79.809,276.100 80.034,276.174 80.111 C 276.249 80.187,276.340 80.512,276.378 80.833 C 276.446 81.408,276.447 81.406,276.457 80.750 C 276.471 79.811,276.271 79.102,276.135 79.611 M225.951 85.289 C 225.975 89.106,226.043 90.931,226.164 90.971 C 226.289 91.013,226.329 89.433,226.296 85.708 L 226.250 80.385 226.750 80.734 C 227.025 80.926,227.310 81.177,227.383 81.292 C 227.457 81.406,227.603 81.500,227.709 81.500 C 227.814 81.500,227.468 81.087,226.939 80.583 C 226.410 80.079,225.964 79.667,225.947 79.667 C 225.930 79.667,225.932 82.197,225.951 85.289 M220.385 80.917 C 220.386 81.467,220.417 81.672,220.454 81.372 C 220.491 81.072,220.490 80.622,220.452 80.372 C 220.414 80.122,220.384 80.367,220.385 80.917 M181.212 81.000 C 181.212 81.412,181.245 81.581,181.284 81.375 C 181.324 81.169,181.324 80.831,181.284 80.625 C 181.245 80.419,181.212 80.587,181.212 81.000 M132.417 82.104 C 130.276 82.896,127.022 83.057,124.341 82.504 C 122.644 82.154,122.161 82.153,123.454 82.503 C 123.892 82.621,124.355 82.801,124.484 82.901 C 124.815 83.159,130.153 83.146,130.682 82.885 C 130.903 82.776,131.511 82.569,132.033 82.425 C 132.556 82.280,133.029 82.088,133.085 81.998 C 133.205 81.803,133.248 81.796,132.417 82.104 M229.000 82.114 C 229.321 82.257,229.714 82.439,229.873 82.520 C 230.032 82.601,230.298 82.667,230.464 82.667 C 230.631 82.667,230.860 82.760,230.975 82.875 C 231.573 83.473,237.704 82.994,238.417 82.293 C 238.526 82.185,238.463 82.165,238.232 82.235 C 235.459 83.070,231.944 83.013,229.354 82.093 C 228.430 81.764,228.239 81.776,229.000 82.114 M369.173 83.070 C 368.885 83.673,368.578 84.167,368.491 84.167 C 368.405 84.167,368.332 84.260,368.331 84.375 C 368.327 84.760,366.429 85.740,365.417 85.880 C 365.233 85.906,365.008 85.969,364.917 86.021 C 364.825 86.073,364.206 86.104,363.542 86.090 C 362.877 86.076,362.333 86.125,362.333 86.199 C 362.333 86.400,364.909 86.361,365.760 86.147 C 366.167 86.044,366.500 85.890,366.500 85.804 C 366.500 85.718,366.575 85.693,366.667 85.750 C 366.758 85.807,366.833 85.774,366.833 85.677 C 366.833 85.579,366.919 85.500,367.024 85.500 C 367.647 85.500,369.312 83.936,369.197 83.458 C 369.180 83.390,369.236 83.333,369.320 83.333 C 369.496 83.333,369.911 82.188,369.781 82.059 C 369.734 82.012,369.461 82.467,369.173 83.070 M355.106 82.750 C 355.054 82.887,355.093 83.000,355.194 83.000 C 355.294 83.000,355.737 83.259,356.176 83.574 C 356.935 84.120,358.533 85.000,358.763 85.000 C 358.924 85.000,357.368 83.918,356.375 83.340 C 355.894 83.060,355.500 82.756,355.500 82.665 C 355.500 82.409,355.214 82.471,355.106 82.750 M178.500 82.827 C 176.836 82.881,175.894 82.969,176.114 83.050 C 176.735 83.276,181.144 83.132,181.240 82.882 C 181.286 82.764,181.306 82.683,181.286 82.702 C 181.266 82.722,180.012 82.778,178.500 82.827 M354.715 83.458 C 354.656 83.619,354.550 83.789,354.481 83.837 C 354.285 83.971,353.000 86.792,353.000 87.088 C 353.000 87.232,353.206 87.535,353.458 87.762 C 353.935 88.191,354.833 88.735,354.833 88.594 C 354.833 88.427,353.901 87.635,353.530 87.487 C 353.070 87.304,353.123 87.022,353.863 85.710 C 354.134 85.230,354.313 84.768,354.260 84.683 C 354.208 84.598,354.236 84.503,354.324 84.473 C 354.499 84.411,355.061 83.167,354.914 83.167 C 354.864 83.167,354.774 83.298,354.715 83.458 M359.917 85.514 C 360.704 85.908,361.971 86.251,362.113 86.109 C 362.219 86.003,361.570 85.718,360.954 85.601 C 360.750 85.562,360.372 85.449,360.114 85.349 C 359.336 85.047,359.204 85.157,359.917 85.514 M356.061 89.418 C 356.543 89.900,358.000 90.515,359.454 90.851 C 360.259 91.037,361.029 91.246,361.167 91.316 C 361.560 91.515,363.126 91.534,363.245 91.341 C 363.316 91.227,362.988 91.163,362.302 91.157 C 361.723 91.152,360.725 91.001,360.083 90.823 C 359.442 90.644,358.842 90.478,358.750 90.453 C 358.658 90.428,358.490 90.349,358.375 90.277 C 358.260 90.206,358.166 90.208,358.164 90.282 C 358.163 90.356,358.106 90.335,358.039 90.236 C 357.933 90.080,356.094 89.167,355.885 89.167 C 355.843 89.167,355.923 89.280,356.061 89.418 M220.450 91.277 C 220.543 91.519,225.631 91.579,225.997 91.342 C 226.162 91.236,225.262 91.166,223.310 91.133 C 221.134 91.096,220.395 91.133,220.450 91.277 " stroke="none" fill="#ececec" fill-rule="evenodd"></path><path id="path3" d="" stroke="none" fill="#f8fc100" fill-rule="evenodd"></path><path id="path4" d="" stroke="none" fill="#f8fc100" fill-rule="evenodd"></path><path id="path5" d="" stroke="none" fill="#f8fc100" fill-rule="evenodd"></path><path id="path6" d="" stroke="none" fill="#f8fc100" fill-rule="evenodd"></path><path id="path7" d="" stroke="none" fill="#f8fc100" fill-rule="evenodd"></path><path id="path8" d="" stroke="none" fill="#f8fc100" fill-rule="evenodd"></path></g></svg>