<svg id="svg" version="1.1" xmlns="http://www.w3.org/2000/svg" xmlns:xlink="http://www.w3.org/1999/xlink" width="400" height="121.73913043478261" viewBox="0, 0, 400,121.73913043478261"><g id="svgg"><path id="path0" d="M25.064 23.734 C 24.159 24.155,23.501 24.886,23.190 25.817 C 22.914 26.641,22.923 41.190,23.200 41.467 C 23.412 41.679,96.020 41.777,96.570 41.566 C 96.805 41.475,96.833 40.632,96.833 33.765 L 96.833 26.065 96.420 25.241 C 95.982 24.370,95.252 23.764,94.317 23.495 C 93.959 23.393,81.319 23.334,59.834 23.335 L 25.917 23.337 25.064 23.734 M23.458 49.279 C 22.984 49.407,22.988 49.189,23.037 72.417 L 23.083 94.750 23.539 95.526 C 23.878 96.101,24.219 96.413,24.864 96.734 L 25.732 97.167 33.333 97.167 C 39.022 97.167,40.984 97.116,41.133 96.967 C 41.386 96.714,41.422 49.899,41.170 49.500 C 41.016 49.256,24.318 49.048,23.458 49.279 M49.167 49.500 C 48.703 49.964,48.633 96.442,49.095 96.905 C 49.331 97.140,51.613 97.167,71.732 97.167 L 94.107 97.167 95.012 96.708 C 95.768 96.325,95.992 96.101,96.375 95.345 L 96.833 94.440 96.833 71.976 C 96.833 49.937,96.827 49.508,96.511 49.339 C 95.799 48.958,49.551 49.115,49.167 49.500 M329.911 49.322 C 326.708 50.090,324.581 52.022,323.713 54.953 C 323.457 55.820,323.423 57.258,323.373 69.292 L 323.319 82.667 325.908 82.667 L 328.497 82.667 328.540 73.208 L 328.583 63.750 331.708 63.705 L 334.833 63.659 334.833 61.496 L 334.833 59.333 331.648 59.333 L 328.462 59.333 328.525 57.624 C 328.647 54.333,330.418 53.243,333.741 54.415 C 334.377 54.640,334.907 54.807,334.918 54.787 C 335.124 54.392,336.119 50.556,336.035 50.481 C 335.117 49.660,331.420 48.960,329.911 49.322 M265.839 63.375 C 265.846 78.157,265.849 78.228,266.662 79.907 C 267.716 82.085,270.378 83.248,272.980 82.668 C 274.095 82.420,276.167 81.415,276.166 81.123 C 276.166 80.875,275.515 77.336,275.417 77.047 C 275.369 76.906,275.131 76.969,274.632 77.256 C 273.493 77.912,272.782 78.052,272.083 77.761 C 270.958 77.291,271.000 77.861,271.000 62.922 L 271.000 49.500 268.417 49.500 L 265.833 49.500 265.839 63.375 M297.109 49.743 C 294.182 50.787,294.554 55.451,297.591 55.793 C 299.686 56.029,301.172 54.747,301.163 52.714 C 301.153 50.466,299.165 49.010,297.109 49.743 M125.704 58.679 C 118.573 59.368,114.122 65.736,115.492 73.291 C 117.213 82.780,129.447 86.137,136.625 79.091 C 138.289 77.457,138.308 77.714,136.402 76.022 L 134.831 74.627 133.776 75.692 C 130.035 79.471,123.857 79.098,121.576 74.956 C 121.288 74.432,121.078 74.571,123.333 73.793 C 124.710 73.317,135.849 69.700,137.375 69.233 C 138.483 68.893,138.481 68.901,138.079 66.868 C 137.178 62.309,133.632 59.167,128.833 58.675 C 127.897 58.579,127.121 58.510,127.107 58.523 C 127.094 58.535,126.463 58.605,125.704 58.679 M170.583 58.672 C 168.233 58.914,165.441 60.160,164.618 61.334 C 164.185 61.952,164.000 61.574,164.000 60.073 L 164.000 58.667 161.500 58.667 L 159.000 58.667 159.000 70.667 L 159.000 82.667 161.484 82.667 L 163.968 82.667 164.042 76.042 C 164.123 68.792,164.196 68.201,165.217 66.457 C 167.531 62.509,173.279 62.439,175.351 66.333 L 175.750 67.083 175.799 74.879 L 175.849 82.675 178.466 82.629 L 181.083 82.583 181.178 75.667 C 181.233 71.653,181.345 68.505,181.446 68.167 C 183.193 62.300,191.471 61.782,192.650 67.467 C 192.767 68.029,192.833 70.952,192.833 75.508 L 192.833 82.667 195.417 82.667 L 198.000 82.667 198.000 74.435 L 198.000 66.204 197.573 64.727 C 196.406 60.686,193.604 58.657,189.167 58.640 C 185.357 58.625,182.458 59.896,180.881 62.271 C 180.190 63.311,180.112 63.340,179.830 62.658 C 178.734 60.013,174.653 58.254,170.583 58.672 M232.917 58.615 C 230.357 58.812,227.783 59.864,226.513 61.232 C 225.899 61.892,225.833 61.789,225.833 60.167 L 225.833 58.667 223.250 58.667 L 220.667 58.667 220.667 74.833 L 220.667 91.000 223.250 91.000 L 225.833 91.000 225.833 85.333 C 225.833 82.217,225.878 79.667,225.933 79.667 C 225.987 79.667,226.380 79.973,226.806 80.348 C 229.901 83.072,235.046 83.573,239.284 81.562 C 246.921 77.938,247.434 65.044,240.130 60.323 C 238.166 59.054,235.478 58.417,232.917 58.615 M295.500 70.667 L 295.500 82.667 298.167 82.667 L 300.833 82.667 300.833 70.667 L 300.833 58.667 298.167 58.667 L 295.500 58.667 295.500 70.667 M353.034 66.125 C 353.090 74.277,353.044 73.867,354.139 76.167 C 356.460 81.039,364.906 82.381,369.351 78.583 L 370.250 77.815 370.298 79.145 C 370.561 86.390,363.754 88.774,356.603 83.942 C 355.128 82.945,355.298 82.861,354.232 85.125 L 353.310 87.083 353.924 87.617 C 359.173 92.183,367.833 92.351,372.272 87.973 C 375.324 84.963,375.392 84.586,375.460 70.375 L 375.517 58.667 372.925 58.667 L 370.333 58.667 370.330 63.875 C 370.327 69.651,370.210 70.654,369.330 72.447 C 367.614 75.942,362.101 76.931,359.623 74.189 C 358.274 72.696,358.174 72.026,358.170 64.458 L 358.167 58.667 355.575 58.667 L 352.984 58.667 353.034 66.125 M129.257 63.257 C 130.933 63.690,133.287 65.649,132.735 66.152 C 132.652 66.228,130.558 66.940,128.083 67.736 C 125.608 68.531,122.957 69.403,122.191 69.674 C 120.477 70.281,120.500 70.281,120.500 69.649 C 120.500 65.245,124.801 62.105,129.257 63.257 M235.067 63.363 C 239.436 64.463,241.509 70.840,238.840 74.969 C 235.885 79.541,228.941 79.075,226.672 74.153 C 223.839 68.007,228.700 61.760,235.067 63.363 " stroke="none" fill="#fbfbfb" fill-rule="evenodd"></path><path id="path1" d="M0.000 60.833 L 0.000 121.667 200.000 121.667 L 400.000 121.667 400.000 60.833 L 400.000 0.000 200.000 0.000 L 0.000 0.000 0.000 60.833 M94.917 23.563 C 95.887 24.020,96.383 24.512,96.742 25.372 C 97.081 26.183,97.135 41.298,96.800 41.633 C 96.499 41.934,23.520 41.923,23.109 41.623 C 22.842 41.427,22.824 40.838,22.869 33.498 L 22.917 25.583 23.480 24.801 C 23.854 24.281,24.331 23.878,24.897 23.602 L 25.750 23.187 59.917 23.178 L 94.083 23.170 94.917 23.563 M332.612 49.181 C 333.965 49.369,336.106 50.101,336.227 50.416 C 336.333 50.693,335.076 55.088,334.902 55.047 C 334.819 55.028,334.188 54.816,333.500 54.578 C 331.999 54.057,331.094 54.027,330.229 54.468 C 329.027 55.082,328.923 55.307,328.861 57.434 L 328.805 59.333 331.902 59.333 L 335.000 59.333 335.000 61.583 L 335.000 63.833 331.918 63.833 L 328.836 63.833 328.793 73.292 L 328.750 82.750 325.953 82.796 L 323.156 82.841 323.209 69.129 C 323.268 53.740,323.181 54.817,324.546 52.706 C 325.897 50.618,327.841 49.427,330.417 49.111 C 330.692 49.078,331.005 49.039,331.113 49.025 C 331.221 49.011,331.895 49.082,332.612 49.181 M41.300 49.367 C 41.591 49.657,41.591 96.843,41.300 97.133 C 41.150 97.283,39.158 97.332,33.342 97.330 C 24.114 97.325,24.299 97.363,23.184 95.252 L 22.833 94.588 22.833 72.052 C 22.833 50.766,22.849 49.507,23.125 49.347 C 23.572 49.086,41.039 49.106,41.300 49.367 M96.815 49.395 C 96.955 49.563,96.993 55.568,96.961 72.353 C 96.911 98.126,97.062 95.585,95.508 96.704 L 94.750 97.250 72.020 97.294 C 55.234 97.327,49.230 97.288,49.062 97.149 C 48.745 96.886,48.718 49.682,49.033 49.367 C 49.349 49.051,96.553 49.079,96.815 49.395 M271.333 63.167 C 271.379 70.729,271.478 77.041,271.554 77.193 C 271.942 77.977,273.061 77.962,274.378 77.154 C 275.450 76.496,275.417 76.474,275.808 78.125 C 276.616 81.543,276.630 81.344,275.530 81.901 C 270.845 84.271,266.658 82.554,265.841 77.928 C 265.729 77.292,265.667 72.011,265.667 63.132 L 265.667 49.325 268.458 49.371 L 271.250 49.417 271.333 63.167 M299.830 49.774 C 301.277 50.629,301.836 52.813,300.996 54.327 C 299.224 57.519,294.522 55.964,294.874 52.302 C 295.097 49.983,297.826 48.591,299.830 49.774 M129.500 58.499 C 130.532 58.650,133.058 59.582,133.664 60.036 C 133.821 60.154,134.317 60.526,134.766 60.862 C 136.420 62.101,138.051 65.005,138.405 67.340 C 138.467 67.749,138.555 68.279,138.601 68.519 C 138.675 68.913,138.607 68.982,137.883 69.239 C 136.685 69.664,129.055 72.139,124.259 73.658 C 121.434 74.553,121.457 74.532,122.210 75.520 C 124.916 79.068,130.409 79.022,133.814 75.422 C 134.870 74.305,134.676 74.261,136.714 76.080 L 138.345 77.536 137.451 78.560 C 130.317 86.726,116.687 83.131,115.159 72.680 C 113.875 63.900,120.648 57.202,129.500 58.499 M164.133 58.533 C 164.255 58.655,164.333 59.249,164.333 60.055 L 164.333 61.376 165.067 60.700 C 169.068 57.012,176.996 57.804,179.750 62.166 L 180.186 62.857 180.652 62.220 C 181.432 61.153,182.867 59.937,183.833 59.522 C 184.338 59.306,185.003 59.022,185.312 58.891 C 188.231 57.653,193.130 58.519,195.412 60.677 C 197.987 63.112,198.061 63.480,198.129 74.129 L 198.186 82.841 195.385 82.796 L 192.583 82.750 192.498 74.833 C 192.422 67.795,192.381 66.848,192.125 66.302 C 190.368 62.547,184.071 62.936,182.179 66.917 C 181.282 68.805,181.283 68.799,181.207 76.042 L 181.135 82.833 178.411 82.833 L 175.688 82.833 175.633 75.125 C 175.569 66.211,175.563 66.173,174.034 64.841 C 171.326 62.481,166.925 63.597,165.151 67.094 L 164.417 68.543 164.333 75.646 L 164.250 82.750 161.458 82.796 L 158.667 82.841 158.667 70.685 C 158.667 61.115,158.711 58.510,158.875 58.444 C 159.341 58.256,163.934 58.334,164.133 58.533 M225.972 58.549 C 226.070 58.668,226.173 59.322,226.200 60.004 L 226.250 61.243 226.917 60.644 C 230.191 57.704,236.900 57.628,240.725 60.489 C 248.252 66.120,246.484 79.885,237.917 82.349 C 233.791 83.536,230.047 83.013,227.163 80.846 L 226.250 80.160 226.206 85.663 L 226.162 91.167 223.331 91.167 L 220.500 91.167 220.500 74.847 C 220.500 61.948,220.544 58.510,220.708 58.444 C 221.206 58.243,225.794 58.335,225.972 58.549 M300.793 70.629 L 300.835 82.842 298.126 82.796 L 295.417 82.750 295.371 70.917 C 295.345 64.408,295.366 58.913,295.417 58.704 C 295.508 58.327,295.524 58.325,298.129 58.371 L 300.750 58.417 300.793 70.629 M358.300 58.533 C 358.449 58.682,358.500 60.367,358.500 65.086 C 358.500 72.034,358.552 72.498,359.470 73.764 C 361.047 75.941,365.668 76.055,367.926 73.973 C 369.823 72.225,370.167 70.632,370.167 63.596 L 370.167 58.506 370.542 58.414 C 370.748 58.363,371.967 58.342,373.250 58.369 L 375.583 58.417 375.626 69.880 C 375.676 83.288,375.740 82.609,374.109 85.994 C 371.658 91.080,363.253 92.887,356.877 89.700 C 355.198 88.861,353.167 87.435,353.167 87.095 C 353.167 86.827,355.135 82.833,355.267 82.833 C 355.321 82.833,355.940 83.237,356.641 83.731 C 357.343 84.225,358.217 84.756,358.583 84.912 C 365.710 87.939,370.167 85.687,370.167 79.060 L 370.167 78.101 369.625 78.601 C 365.830 82.106,357.818 81.568,354.880 77.612 C 352.930 74.986,352.942 75.051,352.871 66.190 C 352.838 62.124,352.851 58.693,352.900 58.565 C 353.020 58.254,357.991 58.225,358.300 58.533 M125.289 63.515 C 123.142 64.020,121.341 66.013,120.825 68.452 C 120.494 70.022,120.502 70.027,122.417 69.389 C 125.694 68.297,128.781 67.295,130.708 66.699 C 132.978 65.997,132.901 66.116,131.840 64.956 C 130.529 63.522,127.804 62.922,125.289 63.515 M231.122 63.504 C 226.506 64.668,224.504 71.263,227.546 75.291 C 230.762 79.551,237.487 78.585,239.319 73.600 C 241.473 67.739,236.861 62.058,231.122 63.504 " stroke="none" fill="#040404" fill-rule="evenodd"></path><path id="path2" d="M96.910 33.833 C 96.910 38.004,96.932 39.710,96.958 37.625 C 96.985 35.540,96.985 32.127,96.958 30.042 C 96.932 27.956,96.910 29.662,96.910 33.833 M23.145 41.542 C 23.388 41.851,96.367 42.016,96.558 41.708 C 96.600 41.640,80.169 41.602,60.044 41.626 C 30.903 41.660,23.398 41.626,23.185 41.459 C 22.947 41.274,22.942 41.283,23.145 41.542 M267.133 49.457 C 267.894 49.488,269.094 49.488,269.800 49.457 C 270.506 49.426,269.883 49.401,268.417 49.401 C 266.950 49.401,266.372 49.427,267.133 49.457 M41.293 73.122 C 41.327 91.862,41.293 96.768,41.126 96.982 C 40.940 97.220,40.949 97.224,41.208 97.021 C 41.517 96.779,41.682 49.799,41.375 49.609 C 41.306 49.567,41.269 60.148,41.293 73.122 M96.914 72.000 C 96.914 84.329,96.934 89.373,96.958 83.208 C 96.983 77.044,96.983 66.956,96.958 60.792 C 96.934 54.627,96.914 59.671,96.914 72.000 M325.667 51.417 C 325.262 51.829,324.968 52.167,325.014 52.167 C 325.060 52.167,325.428 51.829,325.833 51.417 C 326.238 51.004,326.532 50.667,326.486 50.667 C 326.440 50.667,326.072 51.004,325.667 51.417 M323.372 56.500 C 323.372 56.821,323.406 56.952,323.448 56.792 C 323.490 56.631,323.490 56.369,323.448 56.208 C 323.406 56.048,323.372 56.179,323.372 56.500 M328.560 57.833 C 328.560 58.704,328.588 59.060,328.623 58.625 C 328.657 58.190,328.657 57.477,328.623 57.042 C 328.588 56.606,328.560 56.962,328.560 57.833 M125.958 58.618 C 126.165 58.657,126.502 58.657,126.708 58.618 C 126.915 58.578,126.746 58.545,126.333 58.545 C 125.921 58.545,125.752 58.578,125.958 58.618 M128.042 58.615 C 128.202 58.657,128.465 58.657,128.625 58.615 C 128.785 58.573,128.654 58.539,128.333 58.539 C 128.012 58.539,127.881 58.573,128.042 58.615 M170.794 58.618 C 171.001 58.658,171.301 58.656,171.460 58.615 C 171.620 58.573,171.450 58.540,171.083 58.542 C 170.717 58.544,170.586 58.578,170.794 58.618 M172.627 58.618 C 172.834 58.658,173.134 58.656,173.294 58.615 C 173.453 58.573,173.283 58.540,172.917 58.542 C 172.550 58.544,172.420 58.578,172.627 58.618 M189.708 58.615 C 189.869 58.657,190.131 58.657,190.292 58.615 C 190.452 58.573,190.321 58.539,190.000 58.539 C 189.679 58.539,189.548 58.573,189.708 58.615 M232.627 58.618 C 232.834 58.658,233.134 58.656,233.294 58.615 C 233.453 58.573,233.283 58.540,232.917 58.542 C 232.550 58.544,232.420 58.578,232.627 58.618 M234.460 58.618 C 234.668 58.658,234.968 58.656,235.127 58.615 C 235.286 58.573,235.117 58.540,234.750 58.542 C 234.383 58.544,234.253 58.578,234.460 58.618 M158.915 70.750 L 158.917 82.750 161.500 82.750 L 164.083 82.750 164.087 76.750 L 164.090 70.750 164.043 76.708 L 163.996 82.667 161.499 82.667 L 159.002 82.667 158.958 70.708 L 158.913 58.750 158.915 70.750 M164.059 60.083 C 164.059 60.908,164.087 61.267,164.122 60.880 C 164.157 60.493,164.157 59.818,164.123 59.380 C 164.088 58.942,164.060 59.258,164.059 60.083 M225.868 60.125 C 225.832 61.742,225.912 61.907,226.433 61.292 L 226.750 60.917 226.382 61.228 L 226.014 61.539 225.958 60.061 L 225.902 58.583 225.868 60.125 M358.242 64.667 C 358.242 68.012,358.264 69.381,358.291 67.708 C 358.319 66.035,358.319 63.298,358.291 61.625 C 358.264 59.952,358.242 61.321,358.242 64.667 M370.241 64.000 C 370.241 66.979,370.264 68.198,370.291 66.708 C 370.319 65.219,370.319 62.781,370.291 61.292 C 370.264 59.802,370.241 61.021,370.241 64.000 M127.128 63.121 C 127.428 63.158,127.878 63.157,128.128 63.119 C 128.378 63.081,128.133 63.051,127.583 63.052 C 127.033 63.053,126.828 63.084,127.128 63.121 M169.792 63.622 C 170.181 63.657,170.819 63.657,171.208 63.622 C 171.598 63.587,171.279 63.558,170.500 63.558 C 169.721 63.558,169.402 63.587,169.792 63.622 M186.792 63.622 C 187.181 63.657,187.819 63.657,188.208 63.622 C 188.598 63.587,188.279 63.558,187.500 63.558 C 186.721 63.558,186.402 63.587,186.792 63.622 M328.611 63.778 C 328.550 63.839,328.500 68.112,328.500 73.273 L 328.500 82.658 326.000 82.711 L 323.500 82.763 326.041 82.757 L 328.583 82.750 328.626 73.295 L 328.669 63.841 331.793 63.791 L 334.917 63.742 331.819 63.704 C 330.116 63.684,328.672 63.717,328.611 63.778 M227.991 65.125 L 227.417 65.750 228.042 65.176 C 228.385 64.860,228.667 64.578,228.667 64.551 C 228.667 64.423,228.526 64.543,227.991 65.125 M198.077 75.000 C 198.077 79.262,198.098 81.006,198.125 78.875 C 198.151 76.744,198.151 73.256,198.125 71.125 C 198.098 68.994,198.077 70.737,198.077 75.000 M192.743 75.250 C 192.743 79.283,192.765 80.909,192.792 78.864 C 192.818 76.818,192.818 73.518,192.791 71.530 C 192.765 69.543,192.743 71.217,192.743 75.250 M115.212 69.833 C 115.212 70.246,115.245 70.415,115.284 70.208 C 115.324 70.002,115.324 69.665,115.284 69.458 C 115.245 69.252,115.212 69.421,115.212 69.833 M225.888 70.583 C 225.889 71.225,225.919 71.467,225.955 71.121 C 225.991 70.775,225.990 70.250,225.954 69.955 C 225.917 69.659,225.887 69.942,225.888 70.583 M115.209 71.417 C 115.211 71.783,115.245 71.914,115.285 71.706 C 115.324 71.499,115.323 71.199,115.281 71.040 C 115.239 70.880,115.207 71.050,115.209 71.417 M370.227 79.333 C 370.227 80.204,370.255 80.560,370.289 80.125 C 370.324 79.690,370.324 78.977,370.289 78.542 C 370.255 78.106,370.227 78.462,370.227 79.333 M232.458 78.121 C 232.756 78.158,233.244 78.158,233.542 78.121 C 233.840 78.084,233.596 78.053,233.000 78.053 C 232.404 78.053,232.160 78.084,232.458 78.121 M136.742 79.042 L 136.083 79.750 136.792 79.091 C 137.450 78.478,137.577 78.333,137.450 78.333 C 137.423 78.333,137.105 78.652,136.742 79.042 M225.833 85.329 L 225.833 90.992 223.292 91.044 L 220.750 91.096 223.333 91.090 L 225.917 91.083 225.961 85.440 C 226.002 80.109,226.021 79.809,226.294 80.023 C 226.556 80.228,226.562 80.222,226.355 79.958 C 225.878 79.350,225.833 79.805,225.833 85.329 M178.500 82.667 L 175.917 82.763 178.448 82.798 C 179.996 82.820,181.020 82.769,181.083 82.667 C 181.140 82.575,181.163 82.516,181.135 82.535 C 181.107 82.554,179.921 82.614,178.500 82.667 M194.042 82.791 C 194.752 82.822,195.915 82.822,196.625 82.791 C 197.335 82.759,196.754 82.734,195.333 82.734 C 193.912 82.734,193.331 82.759,194.042 82.791 M296.883 82.791 C 297.597 82.822,298.722 82.822,299.383 82.790 C 300.043 82.759,299.458 82.733,298.083 82.733 C 296.708 82.734,296.168 82.759,296.883 82.791 M368.491 84.625 L 367.917 85.250 368.542 84.676 C 369.123 84.141,369.243 84.000,369.116 84.000 C 369.088 84.000,368.807 84.281,368.491 84.625 M372.333 87.917 C 371.928 88.329,371.635 88.667,371.681 88.667 C 371.726 88.667,372.095 88.329,372.500 87.917 C 372.905 87.504,373.199 87.167,373.153 87.167 C 373.107 87.167,372.738 87.504,372.333 87.917 M29.970 97.292 C 32.015 97.318,35.315 97.318,37.303 97.291 C 39.291 97.265,37.617 97.243,33.583 97.243 C 29.550 97.243,27.924 97.265,29.970 97.292 M60.458 97.292 C 66.531 97.316,76.469 97.316,82.542 97.292 C 88.615 97.267,83.646 97.248,71.500 97.248 C 59.354 97.248,54.385 97.267,60.458 97.292 " stroke="none" fill="#848484" fill-rule="evenodd"></path><path id="path3" d="M271.079 62.667 C 271.079 69.954,271.100 72.935,271.125 69.292 C 271.150 65.648,271.150 59.685,271.125 56.042 C 271.100 52.398,271.079 55.379,271.079 62.667 M160.208 58.624 C 160.919 58.655,162.081 58.655,162.792 58.624 C 163.502 58.593,162.921 58.567,161.500 58.567 C 160.079 58.567,159.498 58.593,160.208 58.624 M222.042 58.624 C 222.752 58.655,223.915 58.655,224.625 58.624 C 225.335 58.593,224.754 58.567,223.333 58.567 C 221.912 58.567,221.331 58.593,222.042 58.624 M296.875 58.624 C 297.585 58.655,298.748 58.655,299.458 58.624 C 300.169 58.593,299.587 58.567,298.167 58.567 C 296.746 58.567,296.165 58.593,296.875 58.624 M354.375 58.624 C 355.085 58.655,356.248 58.655,356.958 58.624 C 357.669 58.593,357.087 58.567,355.667 58.567 C 354.246 58.567,353.665 58.593,354.375 58.624 M372.999 58.623 L 375.498 58.675 375.542 69.213 L 375.587 79.750 375.585 69.167 L 375.583 58.583 373.041 58.577 L 370.500 58.570 372.999 58.623 M352.909 65.000 C 352.909 68.529,352.931 69.973,352.958 68.208 C 352.985 66.444,352.985 63.556,352.958 61.792 C 352.931 60.027,352.909 61.471,352.909 65.000 " stroke="none" fill="#7c7c7c" fill-rule="evenodd"></path><path id="path4" d="M22.910 33.917 C 22.910 37.950,22.932 39.576,22.958 37.530 C 22.985 35.485,22.985 32.185,22.958 30.197 C 22.932 28.209,22.910 29.883,22.910 33.917 M22.914 71.833 C 22.914 83.979,22.934 88.948,22.958 82.875 C 22.983 76.802,22.983 66.865,22.958 60.792 C 22.934 54.719,22.914 59.688,22.914 71.833 M323.246 69.917 C 323.246 76.975,323.267 79.838,323.292 76.279 C 323.317 72.720,323.317 66.945,323.292 63.446 C 323.266 59.947,323.246 62.858,323.246 69.917 M334.898 61.583 C 334.898 62.775,334.925 63.241,334.957 62.618 C 334.989 61.996,334.989 61.021,334.957 60.451 C 334.924 59.882,334.898 60.392,334.898 61.583 M220.548 60.417 C 220.549 60.875,220.581 61.043,220.620 60.789 C 220.658 60.536,220.657 60.161,220.617 59.956 C 220.578 59.751,220.546 59.958,220.548 60.417 M241.500 61.219 C 241.500 61.248,241.744 61.491,242.042 61.760 L 242.583 62.250 242.094 61.708 C 241.638 61.203,241.500 61.090,241.500 61.219 M220.553 62.833 C 220.553 63.429,220.584 63.673,220.621 63.375 C 220.658 63.077,220.658 62.590,220.621 62.292 C 220.584 61.994,220.553 62.237,220.553 62.833 M220.542 64.583 C 220.544 64.950,220.578 65.080,220.618 64.873 C 220.658 64.666,220.656 64.366,220.615 64.206 C 220.573 64.047,220.540 64.217,220.542 64.583 M237.333 64.719 C 237.333 64.748,237.577 64.991,237.875 65.260 L 238.417 65.750 237.927 65.208 C 237.471 64.703,237.333 64.590,237.333 64.719 M175.743 75.750 C 175.743 79.600,175.765 81.151,175.792 79.197 C 175.818 77.243,175.818 74.093,175.791 72.197 C 175.765 70.301,175.743 71.900,175.743 75.750 M220.548 76.917 C 220.549 77.375,220.581 77.543,220.620 77.289 C 220.658 77.036,220.657 76.661,220.617 76.456 C 220.578 76.251,220.546 76.458,220.548 76.917 M220.542 81.083 C 220.544 81.450,220.578 81.580,220.618 81.373 C 220.658 81.166,220.656 80.866,220.615 80.706 C 220.573 80.547,220.540 80.717,220.542 81.083 " stroke="none" fill="#535353" fill-rule="evenodd"></path><path id="path5" d="M265.746 62.917 C 265.746 70.342,265.767 73.404,265.792 69.721 C 265.817 66.038,265.817 59.963,265.792 56.221 C 265.767 52.479,265.746 55.492,265.746 62.917 M134.833 61.052 C 134.833 61.081,135.077 61.325,135.375 61.594 L 135.917 62.083 135.427 61.542 C 134.971 61.037,134.833 60.923,134.833 61.052 M220.548 67.750 C 220.549 68.208,220.581 68.376,220.620 68.123 C 220.658 67.869,220.657 67.494,220.617 67.289 C 220.578 67.084,220.546 67.292,220.548 67.750 M220.542 69.583 C 220.544 69.950,220.578 70.080,220.618 69.873 C 220.658 69.666,220.656 69.366,220.615 69.206 C 220.573 69.047,220.540 69.217,220.542 69.583 M220.557 72.417 C 220.558 73.150,220.587 73.429,220.622 73.037 C 220.657 72.645,220.657 72.045,220.621 71.704 C 220.585 71.363,220.557 71.683,220.557 72.417 M220.539 82.167 C 220.539 82.487,220.573 82.619,220.615 82.458 C 220.657 82.298,220.657 82.035,220.615 81.875 C 220.573 81.715,220.539 81.846,220.539 82.167 M220.545 83.667 C 220.545 84.079,220.578 84.248,220.618 84.042 C 220.657 83.835,220.657 83.498,220.618 83.292 C 220.578 83.085,220.545 83.254,220.545 83.667 M220.561 88.083 C 220.561 89.000,220.589 89.354,220.623 88.869 C 220.657 88.385,220.656 87.635,220.622 87.203 C 220.588 86.770,220.560 87.167,220.561 88.083 " stroke="none" fill="#747474" fill-rule="evenodd"></path><path id="path6" d="M271.246 62.750 C 271.246 70.083,271.267 73.059,271.292 69.363 C 271.317 65.666,271.317 59.666,271.292 56.029 C 271.267 52.392,271.246 55.417,271.246 62.750 M328.726 57.917 C 328.725 58.742,328.754 59.100,328.788 58.713 C 328.823 58.327,328.824 57.652,328.789 57.213 C 328.755 56.775,328.726 57.092,328.726 57.917 M160.208 58.457 C 160.919 58.488,162.081 58.488,162.792 58.457 C 163.502 58.426,162.921 58.400,161.500 58.400 C 160.079 58.400,159.498 58.426,160.208 58.457 M222.042 58.457 C 222.752 58.488,223.915 58.488,224.625 58.457 C 225.335 58.426,224.754 58.400,223.333 58.400 C 221.912 58.400,221.331 58.426,222.042 58.457 M296.800 58.457 C 297.560 58.488,298.760 58.488,299.466 58.457 C 300.172 58.426,299.550 58.401,298.083 58.401 C 296.617 58.401,296.039 58.427,296.800 58.457 M354.300 58.457 C 355.060 58.488,356.260 58.488,356.966 58.457 C 357.672 58.426,357.050 58.401,355.583 58.401 C 354.117 58.401,353.539 58.427,354.300 58.457 M371.708 58.457 C 372.419 58.488,373.581 58.488,374.292 58.457 C 375.002 58.426,374.421 58.400,373.000 58.400 C 371.579 58.400,370.998 58.426,371.708 58.457 M164.225 60.000 C 164.225 60.779,164.254 61.098,164.289 60.708 C 164.324 60.319,164.324 59.681,164.289 59.292 C 164.254 58.902,164.225 59.221,164.225 60.000 M226.058 60.000 C 226.058 60.779,226.087 61.098,226.122 60.708 C 226.157 60.319,226.157 59.681,226.122 59.292 C 226.087 58.902,226.058 59.221,226.058 60.000 M295.412 70.667 C 295.412 77.313,295.433 80.031,295.458 76.708 C 295.484 73.385,295.484 67.948,295.458 64.625 C 295.433 61.302,295.412 64.021,295.412 70.667 M358.409 64.583 C 358.409 67.883,358.431 69.257,358.458 67.636 C 358.485 66.015,358.485 63.315,358.458 61.636 C 358.431 59.957,358.409 61.283,358.409 64.583 M127.208 63.282 C 127.369 63.323,127.631 63.323,127.792 63.282 C 127.952 63.240,127.821 63.205,127.500 63.205 C 127.179 63.205,127.048 63.240,127.208 63.282 M328.745 73.250 C 328.745 78.475,328.766 80.588,328.792 77.946 C 328.817 75.305,328.817 71.030,328.792 68.446 C 328.766 65.863,328.745 68.025,328.745 73.250 M192.576 75.583 C 192.576 79.525,192.598 81.114,192.625 79.114 C 192.651 77.114,192.651 73.889,192.625 71.947 C 192.598 70.005,192.576 71.642,192.576 75.583 M239.872 70.667 C 239.872 70.987,239.906 71.119,239.948 70.958 C 239.990 70.798,239.990 70.535,239.948 70.375 C 239.906 70.215,239.872 70.346,239.872 70.667 M164.242 76.667 C 164.242 80.012,164.264 81.381,164.291 79.708 C 164.319 78.035,164.319 75.298,164.291 73.625 C 164.264 71.952,164.242 73.321,164.242 76.667 M241.991 79.792 L 241.417 80.417 242.042 79.842 C 242.385 79.526,242.667 79.245,242.667 79.217 C 242.667 79.090,242.526 79.210,241.991 79.792 M226.075 85.583 C 226.075 88.700,226.097 89.951,226.125 88.364 C 226.152 86.777,226.152 84.227,226.125 82.698 C 226.097 81.168,226.075 82.467,226.075 85.583 M126.375 82.948 C 126.535 82.990,126.798 82.990,126.958 82.948 C 127.119 82.906,126.987 82.872,126.667 82.872 C 126.346 82.872,126.215 82.906,126.375 82.948 M232.542 82.948 C 232.702 82.990,232.965 82.990,233.125 82.948 C 233.285 82.906,233.154 82.872,232.833 82.872 C 232.512 82.872,232.381 82.906,232.542 82.948 M234.708 82.948 C 234.869 82.990,235.131 82.990,235.292 82.948 C 235.452 82.906,235.321 82.872,235.000 82.872 C 234.679 82.872,234.548 82.906,234.708 82.948 " stroke="none" fill="#262626" fill-rule="evenodd"></path><path id="path7" d="M127.125 58.451 C 127.331 58.491,127.669 58.491,127.875 58.451 C 128.081 58.411,127.912 58.379,127.500 58.379 C 127.087 58.379,126.919 58.411,127.125 58.451 M171.708 58.448 C 171.869 58.490,172.131 58.490,172.292 58.448 C 172.452 58.406,172.321 58.372,172.000 58.372 C 171.679 58.372,171.548 58.406,171.708 58.448 M188.875 58.448 C 189.035 58.490,189.298 58.490,189.458 58.448 C 189.619 58.406,189.487 58.372,189.167 58.372 C 188.846 58.372,188.715 58.406,188.875 58.448 M233.542 58.448 C 233.702 58.490,233.965 58.490,234.125 58.448 C 234.285 58.406,234.154 58.372,233.833 58.372 C 233.512 58.372,233.381 58.406,233.542 58.448 M158.746 70.667 C 158.746 77.313,158.766 80.031,158.792 76.708 C 158.817 73.385,158.817 67.948,158.792 64.625 C 158.766 61.302,158.746 64.021,158.746 70.667 M232.708 63.282 C 232.869 63.323,233.131 63.323,233.292 63.282 C 233.452 63.240,233.321 63.205,233.000 63.205 C 232.679 63.205,232.548 63.240,232.708 63.282 " stroke="none" fill="#3c3c3c" fill-rule="evenodd"></path><path id="path8" d="M43.222 23.292 C 52.464 23.315,67.539 23.315,76.722 23.292 C 85.904 23.268,78.342 23.248,59.917 23.248 C 41.492 23.248,33.979 23.268,43.222 23.292 " stroke="none" fill="#343434" fill-rule="evenodd"></path></g></svg>